<svg xmlns="http://www.w3.org/2000/svg">
  <symbol id="LaBonneFabrique" viewBox="0 0 350 350">
    <path d="M231.476 160.018l11.531-3.006-.002-8.663-11.529-3.001a57.164 57.164 0 0 0-1.402-7.145l9.68-7.181-3.263-8.022-11.947 1.618a56.56 56.56 0 0 0-4.43-6.681l6.024-10.28-6.126-6.123-10.279 6.033a56.902 56.902 0 0 0-6.041-4.052l1.713-11.803-7.982-3.365-7.252 9.466a57.23 57.23 0 0 0-7.849-1.592l-3.01-11.534-8.663.005-2.999 11.529a57.168 57.168 0 0 0-7.147 1.403l-7.181-9.68-8.022 3.264 1.622 11.946a56.796 56.796 0 0 0-6.685 4.429l-10.277-6.027-6.124 6.129 6.035 10.279a57.34 57.34 0 0 0-4.053 6.039l-11.804-1.712-3.366 7.983 9.467 7.254a56.828 56.828 0 0 0-1.591 7.848l-11.533 3.008.002 8.663 11.529 2.999a56.782 56.782 0 0 0 1.406 7.147l-9.683 7.18 3.264 8.023 11.947-1.621a56.606 56.606 0 0 0 4.429 6.683l-6.025 10.278 6.128 6.125 10.279-6.034a57.131 57.131 0 0 0 6.039 4.053l-1.715 11.8 7.985 3.367 7.253-9.469a56.887 56.887 0 0 0 7.847 1.596l3.01 11.532 8.662-.001 3-11.53a57.35 57.35 0 0 0 7.147-1.405l7.181 9.681 8.024-3.265-1.623-11.944a56.786 56.786 0 0 0 6.686-4.432l10.277 6.027 6.12-6.126-6.033-10.281a56.144 56.144 0 0 0 4.055-6.04l11.806 1.715 3.363-7.983-9.467-7.255a57.321 57.321 0 0 0 1.592-7.85m-59.765 40.036c-26.156-1.816-45.883-24.49-44.066-50.644 1.816-26.152 24.486-45.884 50.643-44.068 26.151 1.816 45.882 24.492 44.065 50.644-1.815 26.155-24.49 45.884-50.642 44.068" fill="#fff"/>
    <path d="M208.794 151.985c0 18.664-15.13 33.794-33.794 33.794-18.664 0-33.795-15.13-33.795-33.794 0-18.664 15.131-33.794 33.795-33.794s33.794 15.13 33.794 33.794" fill="#fff"/>
    <path d="M174.999 292.457c-11.888 0-22.615-5.59-27.328-14.241l-2.217-4.07h59.082l-2.213 4.066c-4.704 8.652-15.428 14.244-27.324 14.244m-19.433-12.807c4.52 4.542 11.646 7.304 19.433 7.304 7.795 0 14.922-2.762 19.433-7.304h-38.866zm49.641-8.109h-60.42a6.1 6.1 0 0 1-6.094-6.09v-6.297c0-3.364 2.733-6.103 6.094-6.103h60.42a6.11 6.11 0 0 1 6.101 6.103v6.298c0 3.356-2.736 6.09-6.101 6.09m-60.42-12.988a.604.604 0 0 0-.591.599v6.298c0 .334.256.586.591.586h60.42a.587.587 0 0 0 .597-.586v-6.298a.606.606 0 0 0-.597-.6h-60.42zm63.56-8.27h-68.681c-7.527 0-14.043-4.838-15.5-11.508l-2.365-6.977c-.798-3.579-2.813-5.503-5.36-7.94-1.099-1.05-2.244-2.147-3.365-3.408-1.343-1.514-32.949-37.468-32.949-69.351 0-52.46 41.672-93.553 94.872-93.553s94.872 41.094 94.872 93.553c0 32.342-32.519 68.624-33.9 70.153-1.198 1.322-2.435 2.459-3.622 3.547-2.585 2.37-4.627 4.24-5.444 7.44l-2.832 7.076c-1.571 6.21-8.229 10.969-15.726 10.969M174.999 63.05c-50.113 0-89.369 38.675-89.369 88.05 0 29.781 31.246 65.342 31.563 65.697 1.013 1.142 2.053 2.131 3.047 3.082 2.841 2.714 5.78 5.522 6.858 10.453l2.367 6.98c.97 4.384 5.323 7.47 10.201 7.47h68.681c4.938 0 9.458-3.089 10.506-7.18l2.833-7.074c1.106-4.436 4.073-7.156 6.943-9.786 1.069-.978 2.182-1.997 3.262-3.185.323-.357 32.477-36.244 32.477-66.458 0-49.375-39.254-88.05-89.369-88.05" fill="#fff"/>
    <path d="M174.999 341.31l166.311-83.155V91.845L174.999 8.69 8.69 91.845v166.31z"/>
    <path d="M309.352 205.543V137.12a6.765 6.765 0 0 0-13.53 0v61.848h-37.913a6.764 6.764 0 0 0-6.768 6.763v45.04a6.763 6.763 0 0 0 6.768 6.762 6.763 6.763 0 0 0 6.763-6.762v-38.274h31.155v38.274a6.76 6.76 0 0 0 6.762 6.762 6.762 6.762 0 0 0 6.763-6.762v-45.228zm-218.606-6.575H52.831V137.12a6.765 6.765 0 0 0-13.529 0V250.77a6.761 6.761 0 0 0 6.762 6.762 6.762 6.762 0 0 0 6.763-6.762v-38.274h31.155v38.274a6.762 6.762 0 0 0 6.764 6.762 6.762 6.762 0 0 0 6.762-6.762v-45.036a6.762 6.762 0 0 0-6.762-6.767" fill="#fff"/>
    <path d="M302.589 258.24c-4.119 0-7.471-3.35-7.471-7.47v-37.565H265.38v37.566c0 4.119-3.352 7.47-7.471 7.47-4.122 0-7.476-3.351-7.476-7.47v-45.04c0-4.12 3.354-7.472 7.476-7.472h37.204v-61.14c0-4.12 3.353-7.471 7.473-7.471 4.121 0 7.475 3.352 7.475 7.47V250.77c0 4.12-3.352 7.47-7.472 7.47zm-38.626-46.452h32.573v38.983a6.06 6.06 0 0 0 6.053 6.053 6.061 6.061 0 0 0 6.055-6.053V137.12a6.063 6.063 0 0 0-6.058-6.054 6.062 6.062 0 0 0-6.056 6.054v62.557h-38.621a6.064 6.064 0 0 0-6.059 6.055v45.04c0 3.338 2.718 6.053 6.059 6.053a6.06 6.06 0 0 0 6.054-6.053v-38.984zM90.746 258.24c-4.12 0-7.472-3.351-7.472-7.47v-37.566H53.536v37.566c0 4.119-3.353 7.47-7.472 7.47s-7.471-3.351-7.471-7.47V137.12c0-4.12 3.352-7.471 7.471-7.471 4.122 0 7.475 3.352 7.475 7.47v61.14h37.207c4.119 0 7.471 3.355 7.471 7.477v45.036c0 4.118-3.351 7.469-7.471 7.469zm-38.627-46.453h32.573v38.983a6.06 6.06 0 0 0 6.055 6.053 6.06 6.06 0 0 0 6.054-6.053v-45.036c0-3.341-2.716-6.06-6.054-6.06H52.123V137.12a6.063 6.063 0 0 0-6.058-6.054 6.061 6.061 0 0 0-6.054 6.054v113.65a6.06 6.06 0 0 0 6.054 6.054 6.06 6.06 0 0 0 6.054-6.053v-38.982zM83.609 123.299c-12.032 0-21.82-9.79-21.82-21.823 0-12.032 9.788-21.821 21.82-21.821 12.033 0 21.823 9.789 21.823 21.82 0 12.035-9.79 21.824-21.823 21.824zm0-41.644c-10.929 0-19.82 8.892-19.82 19.82 0 10.93 8.892 19.824 19.82 19.824 10.931 0 19.823-8.893 19.823-19.823s-8.893-19.821-19.823-19.821z" fill="#e32e39"/>
    <path d="M83.609 122.654c-11.676 0-21.175-9.5-21.175-21.177 0-11.676 9.499-21.176 21.175-21.176 11.678 0 21.178 9.5 21.178 21.176 0 11.677-9.5 21.177-21.178 21.177z" fill="#fff"/>
    <path d="M83.609 123.654c-12.228 0-22.175-9.95-22.175-22.177 0-12.228 9.947-22.176 22.175-22.176 12.229 0 22.178 9.948 22.178 22.176 0 12.228-9.95 22.177-22.178 22.177zm0-42.353c-11.124 0-20.175 9.05-20.175 20.176 0 11.126 9.051 20.177 20.175 20.177 11.126 0 20.178-9.051 20.178-20.177S94.735 81.3 83.609 81.3z" fill="#e32e39"/>
    <path d="M120.419 257.56c-5.345 0-9.85-4.013-10.479-9.335l-5.363-46.301-25.058.043c-.405.026-.809.052-1.213.052-9.671 0-20.109-6.563-20.109-17.166v-45.951c0-9.093 7.892-15.163 15.224-16.954l.137-.026c.067-.015 2.566-.532 4.863-.585l.299-.003c2.346 0 4.445.624 4.533.65 5.235 1.283 9.968 4.505 12.641 8.619.049.05.107.117.164.205 10.001 13.664 14.352 19.21 21.478 19.21 2.813 0 6.168-.822 11.216-2.752a9.034 9.034 0 0 1 3.241-.602c3.738 0 7.146 2.344 8.482 5.834a9.021 9.021 0 0 1-.188 6.948 9.008 9.008 0 0 1-5.047 4.775c-6.614 2.543-12.434 3.78-17.788 3.78-7.073 0-13.176-2.173-19.045-6.81v19.632l15.567-.021c5.363 0 9.868 4.016 10.479 9.342l6.455 55.658a10.446 10.446 0 0 1-2.196 7.75 10.48 10.48 0 0 1-7.062 3.94 11.72 11.72 0 0 1-1.231.069zm-14.06-57.638l5.568 48.07c.51 4.315 4.16 7.569 8.492 7.569a9.52 9.52 0 0 0 1.01-.058 8.492 8.492 0 0 0 5.714-3.192 8.46 8.46 0 0 0 1.779-6.278l-6.455-55.661a8.543 8.543 0 0 0-8.492-7.571l-17.568.023V156.85l1.659 1.452c5.997 5.25 12.157 7.696 19.386 7.696 5.105 0 10.689-1.193 17.073-3.647a7.026 7.026 0 0 0 3.936-3.723 7.036 7.036 0 0 0 .147-5.418 7.123 7.123 0 0 0-6.615-4.55c-.863 0-1.713.159-2.525.47-5.291 2.024-8.859 2.887-11.932 2.887-8.087 0-12.929-6.144-23.102-20.042l-.157-.191c-2.39-3.742-6.707-6.685-11.55-7.873-.068-.02-1.966-.58-4.007-.58l-.252.003c-2.11.049-4.515.546-4.539.55l-.104.019c-6.527 1.598-13.628 6.982-13.628 14.997v45.95c0 9.369 9.4 15.167 18.109 15.167.361 0 .721-.024 1.082-.048l.393-.025 26.578-.023z" fill="#e32e39"/>
    <path d="M120.419 256.916c-5.018 0-9.247-3.77-9.838-8.766l-5.429-46.872-25.676.045c-.391.025-.779.05-1.17.05-9.36 0-19.464-6.315-19.464-16.52v-45.951c0-8.745 7.637-14.594 14.731-16.327l.091-.017c.09-.02 2.533-.525 4.771-.577l.283-.003c2.252 0 4.263.598 4.348.624 5.154 1.264 9.778 4.426 12.351 8.454.014-.013.067.044.118.138 10.133 13.839 14.552 19.47 21.999 19.47 2.897 0 6.32-.836 11.446-2.796a8.363 8.363 0 0 1 3.011-.56c3.473 0 6.639 2.178 7.88 5.419a8.382 8.382 0 0 1-.175 6.455 8.373 8.373 0 0 1-4.688 4.435c-6.541 2.515-12.284 3.737-17.559 3.737-7.339 0-13.615-2.395-19.69-7.526v21.64l16.214-.021a9.9 9.9 0 0 1 9.838 8.77l6.455 55.658a9.805 9.805 0 0 1-2.063 7.276 9.841 9.841 0 0 1-6.629 3.699 10.77 10.77 0 0 1-1.155.066z" fill="#fff"/>
    <path d="M120.419 257.916c-5.524 0-10.181-4.148-10.831-9.65l-5.326-45.986-24.783.043a16.72 16.72 0 0 1-1.172.05c-9.842 0-20.464-6.698-20.464-17.52v-45.951c0-9.284 8.031-15.475 15.494-17.298l.148-.03c-.002 0 2.561-.537 4.928-.591l.295-.004c2.351 0 4.418.597 4.646.666 5.297 1.297 10.092 4.56 12.816 8.733.071.073.141.162.205.27 9.904 13.526 14.21 19.017 21.16 19.017 2.767 0 6.083-.816 11.089-2.73a9.366 9.366 0 0 1 3.368-.625c3.884 0 7.426 2.436 8.813 6.062a9.377 9.377 0 0 1-.195 7.22 9.363 9.363 0 0 1-5.244 4.96c-6.655 2.56-12.517 3.804-17.915 3.804-6.94 0-12.93-2.055-18.69-6.441v18.553l15.213-.02a10.898 10.898 0 0 1 10.832 9.656l6.455 55.657a10.803 10.803 0 0 1-2.271 8.012 10.835 10.835 0 0 1-8.571 4.143zm-14.376-57.64l5.531 47.759c.531 4.492 4.334 7.88 8.845 7.88.328 0 .68-.02 1.05-.06a8.844 8.844 0 0 0 5.952-3.324 8.815 8.815 0 0 0 1.854-6.54l-6.455-55.66a8.9 8.9 0 0 0-8.845-7.884l-17.214.023v-24.794l1.646 1.389c5.889 4.974 11.94 7.29 19.045 7.29 5.148 0 10.774-1.201 17.2-3.671a7.38 7.38 0 0 0 4.133-3.91 7.385 7.385 0 0 0 .154-5.69 7.48 7.48 0 0 0-6.946-4.775c-.907 0-1.8.166-2.652.493-5.249 2.006-8.779 2.862-11.805 2.862-7.787 0-12.283-5.528-22.237-19.104l-.065.063-.657-1.03c-2.438-3.816-6.829-6.814-11.746-8.02-.128-.037-2.02-.595-4.109-.595l-.271.003c-2.137.049-4.552.55-4.576.555l-.118.022c-6.67 1.63-13.911 7.138-13.911 15.343v45.95c0 9.587 9.584 15.522 18.464 15.522.367 0 .731-.024 1.099-.048l26.634-.048zM264.552 123.299c-12.032 0-21.821-9.79-21.821-21.823 0-12.032 9.789-21.821 21.821-21.821 12.033 0 21.823 9.789 21.823 21.82 0 12.035-9.79 21.824-21.823 21.824zm0-41.644c-10.93 0-19.821 8.892-19.821 19.82 0 10.93 8.892 19.824 19.821 19.824 10.931 0 19.823-8.893 19.823-19.823s-8.892-19.821-19.823-19.821z" fill="#e32e39"/>
    <path d="M264.552 122.654c-11.677 0-21.176-9.5-21.176-21.177 0-11.676 9.499-21.176 21.176-21.176 11.678 0 21.178 9.5 21.178 21.176 0 11.677-9.5 21.177-21.178 21.177z" fill="#fff"/>
    <path d="M264.552 123.654c-12.228 0-22.176-9.95-22.176-22.177 0-12.228 9.948-22.176 22.176-22.176 12.229 0 22.178 9.948 22.178 22.176 0 12.228-9.949 22.177-22.178 22.177zm0-42.353c-11.125 0-20.176 9.05-20.176 20.176 0 11.126 9.051 20.177 20.176 20.177 11.126 0 20.178-9.051 20.178-20.177S275.678 81.3 264.552 81.3z" fill="#e32e39"/>
    <g>
        <path d="M226.463 257.56c-.405 0-.804-.023-1.214-.068a10.498 10.498 0 0 1-7.072-3.931 10.489 10.489 0 0 1-2.213-7.771l6.455-55.65a10.541 10.541 0 0 1 10.48-9.34l15.568.01V161.19c-5.868 4.638-11.968 6.81-19.036 6.81-5.349 0-11.17-1.235-17.799-3.778a9.009 9.009 0 0 1-5.045-4.782 9.029 9.029 0 0 1-.188-6.951c1.337-3.491 4.746-5.836 8.483-5.836 1.11 0 2.203.202 3.25.602 5.052 1.936 8.406 2.76 11.218 2.76 7.125 0 11.474-5.554 21.488-19.24l.112-.135c2.715-4.164 7.447-7.375 12.729-8.668a17.314 17.314 0 0 1 4.476-.636l.305.004c2.286.052 4.794.56 4.9.583 7.423 1.809 15.315 7.88 15.315 16.973v45.959c0 10.603-10.434 17.166-20.101 17.166-.507 0-1.009-.04-1.506-.078l-.113-.01-24.649-.017-5.374 46.31a10.541 10.541 0 0 1-10.469 9.336zm6.444-74.758a8.546 8.546 0 0 0-8.501 7.569l-6.455 55.65a8.495 8.495 0 0 0 1.794 6.298 8.513 8.513 0 0 0 6.718 3.242 8.544 8.544 0 0 0 8.484-7.568l5.579-48.081 26.702.035c.445.035.894.072 1.348.072 8.705 0 18.101-5.798 18.101-15.166v-45.96c0-8.013-7.103-13.4-13.701-15.014-.04-.004-2.457-.494-4.561-.542l-.259-.003c-2.044 0-3.931.559-3.95.565-4.896 1.2-9.219 4.14-11.612 7.876l-.171.215c-10.172 13.904-15.009 20.024-23.072 20.025-3.071 0-6.64-.865-11.932-2.893a7.087 7.087 0 0 0-2.536-.47 7.126 7.126 0 0 0-6.616 4.55 7.048 7.048 0 0 0 .147 5.422 7.03 7.03 0 0 0 3.935 3.729c6.396 2.454 11.984 3.647 17.083 3.647 7.224 0 13.381-2.446 19.377-7.697l1.659-1.453v25.962l-17.561-.01z" fill="#e32e39"/>
    </g>
    <g>
        <path d="M226.463 256.915c-.371 0-.745-.021-1.144-.065a9.856 9.856 0 0 1-6.637-3.69 9.843 9.843 0 0 1-2.078-7.295l6.455-55.65a9.898 9.898 0 0 1 9.84-8.768l16.214.01v-21.63c-6.074 5.132-12.348 7.527-19.682 7.527-5.268 0-11.014-1.222-17.567-3.736a8.37 8.37 0 0 1-4.687-4.442 8.388 8.388 0 0 1-.176-6.457c1.242-3.243 4.409-5.422 7.881-5.422 1.031 0 2.047.188 3.02.56 5.129 1.965 8.553 2.803 11.448 2.803 7.424-.001 12.112-5.98 22.009-19.506l.091-.105c2.579-4.027 7.207-7.185 12.384-8.452a16.634 16.634 0 0 1 4.322-.618l.29.003c2.229.05 4.682.549 4.785.57 7.162 1.746 14.8 7.596 14.8 16.34v45.96c0 10.204-10.099 16.52-19.455 16.52a18.4 18.4 0 0 1-1.455-.076l-.113-.01-25.275-.02-5.439 46.88c-.581 5-4.806 8.769-9.831 8.769z" fill="#fff"/>
        <path d="M226.463 257.915c-.405 0-.815-.023-1.252-.071a10.852 10.852 0 0 1-7.312-4.063 10.83 10.83 0 0 1-2.288-8.031l6.455-55.65a10.897 10.897 0 0 1 10.833-9.653l15.214.01v-18.543c-5.759 4.386-11.745 6.44-18.682 6.44-5.392 0-11.256-1.243-17.926-3.802a9.357 9.357 0 0 1-5.241-4.968 9.374 9.374 0 0 1-.196-7.222c1.389-3.627 4.932-6.064 8.814-6.064 1.154 0 2.29.21 3.376.625 5.008 1.919 8.325 2.737 11.092 2.737 6.938-.001 11.513-5.855 21.202-19.096l.09-.108c2.72-4.211 7.557-7.51 12.954-8.831h-.001c-.006 0 2.143-.646 4.561-.646l.302.003c2.363.054 4.951.586 4.977.59 7.529 1.835 15.597 8.032 15.597 17.32v45.96c0 10.822-10.618 17.52-20.455 17.52-.517 0-1.027-.04-1.534-.08l-.111-.008-24.308-.017-5.337 45.996c-.639 5.503-5.292 9.652-10.824 9.652zm6.436-75.468a8.9 8.9 0 0 0-8.846 7.883l-6.455 55.65a8.857 8.857 0 0 0 1.868 6.559 8.867 8.867 0 0 0 6.997 3.376 8.901 8.901 0 0 0 8.837-7.882l5.542-47.767 26.356.033c.456.036.914.073 1.378.073 8.876 0 18.455-5.934 18.455-15.52v-45.96c0-8.208-7.276-13.721-14.036-15.368-.003 0-2.405-.493-4.571-.542l-.279-.003c-2.114 0-3.996.567-4.015.573-4.991 1.224-9.395 4.222-11.838 8.037l-.175.218c-10.055 13.747-14.855 19.853-22.767 19.854-3.026 0-6.558-.858-11.806-2.87a7.443 7.443 0 0 0-2.662-.493 7.48 7.48 0 0 0-6.947 4.78 7.398 7.398 0 0 0 .155 5.692 7.375 7.375 0 0 0 4.131 3.915c6.438 2.47 12.067 3.67 17.21 3.67 7.1 0 13.148-2.316 19.036-7.29l1.646-1.39v24.784l-17.214-.012z" fill="#e32e39"/>
    </g>
    <path d="M189.581 259.006h-25.944a6.337 6.337 0 0 1-6.33-6.33c0-3.49 2.84-6.33 6.33-6.33h6.643v-68.56h-35.346a6.337 6.337 0 0 1-6.33-6.328c0-3.49 2.84-6.33 6.33-6.33h83.351c3.49 0 6.33 2.84 6.33 6.33s-2.84 6.329-6.33 6.329h-35.346v68.56h6.643c3.49 0 6.33 2.84 6.33 6.33s-2.84 6.329-6.331 6.329z" fill="#fff"/>
 </symbol>   
</svg>