<svg xmlns="http://www.w3.org/2000/svg">
  <symbol id="LaBrasserie" viewBox="0 0 350 350">
    <path d="M231.476 160.018l11.531-3.006-.002-8.663-11.529-3.001a57.164 57.164 0 0 0-1.402-7.145l9.68-7.181-3.263-8.022-11.947 1.618a56.56 56.56 0 0 0-4.43-6.681l6.024-10.28-6.126-6.123-10.279 6.033a56.902 56.902 0 0 0-6.041-4.052l1.713-11.803-7.982-3.365-7.252 9.466a57.23 57.23 0 0 0-7.849-1.592l-3.01-11.534-8.663.005-2.999 11.529a57.168 57.168 0 0 0-7.147 1.403l-7.181-9.68-8.022 3.264 1.622 11.946a56.796 56.796 0 0 0-6.685 4.429l-10.277-6.027-6.124 6.129 6.035 10.279a57.34 57.34 0 0 0-4.053 6.039l-11.804-1.712-3.366 7.983 9.467 7.254a56.828 56.828 0 0 0-1.591 7.848l-11.533 3.008.002 8.663 11.529 2.999a56.782 56.782 0 0 0 1.406 7.147l-9.683 7.18 3.264 8.023 11.947-1.621a56.606 56.606 0 0 0 4.429 6.683l-6.025 10.278 6.128 6.125 10.279-6.034a57.131 57.131 0 0 0 6.039 4.053l-1.715 11.8 7.985 3.367 7.253-9.469a56.887 56.887 0 0 0 7.847 1.596l3.01 11.532 8.662-.001 3-11.53a57.35 57.35 0 0 0 7.147-1.405l7.181 9.681 8.024-3.265-1.623-11.944a56.786 56.786 0 0 0 6.686-4.432l10.277 6.027 6.12-6.126-6.033-10.281a56.144 56.144 0 0 0 4.055-6.04l11.806 1.715 3.363-7.983-9.467-7.255a57.321 57.321 0 0 0 1.592-7.85m-59.765 40.036c-26.156-1.816-45.883-24.49-44.066-50.644 1.816-26.152 24.486-45.884 50.643-44.068 26.151 1.816 45.882 24.492 44.065 50.644-1.815 26.155-24.49 45.884-50.642 44.068" fill="#fff"/>
    <path d="M208.794 151.985c0 18.664-15.13 33.794-33.794 33.794-18.664 0-33.795-15.13-33.795-33.794 0-18.664 15.131-33.794 33.795-33.794s33.794 15.13 33.794 33.794" fill="#fff"/>
    <path d="M174.999 292.457c-11.888 0-22.615-5.59-27.328-14.241l-2.217-4.07h59.082l-2.213 4.066c-4.704 8.652-15.428 14.244-27.324 14.244m-19.433-12.807c4.52 4.542 11.646 7.304 19.433 7.304 7.795 0 14.922-2.762 19.433-7.304h-38.866zm49.641-8.109h-60.42a6.1 6.1 0 0 1-6.094-6.09v-6.297c0-3.364 2.733-6.103 6.094-6.103h60.42a6.11 6.11 0 0 1 6.101 6.103v6.298c0 3.356-2.736 6.09-6.101 6.09m-60.42-12.988a.604.604 0 0 0-.591.599v6.298c0 .334.256.586.591.586h60.42a.587.587 0 0 0 .597-.586v-6.298a.606.606 0 0 0-.597-.6h-60.42zm63.56-8.27h-68.681c-7.527 0-14.043-4.838-15.5-11.508l-2.365-6.977c-.798-3.579-2.813-5.503-5.36-7.94-1.099-1.05-2.244-2.147-3.365-3.408-1.343-1.514-32.949-37.468-32.949-69.351 0-52.46 41.672-93.553 94.872-93.553s94.872 41.094 94.872 93.553c0 32.342-32.519 68.624-33.9 70.153-1.198 1.322-2.435 2.459-3.622 3.547-2.585 2.37-4.627 4.24-5.444 7.44l-2.832 7.076c-1.571 6.21-8.229 10.969-15.726 10.969M174.999 63.05c-50.113 0-89.369 38.675-89.369 88.05 0 29.781 31.246 65.342 31.563 65.697 1.013 1.142 2.053 2.131 3.047 3.082 2.841 2.714 5.78 5.522 6.858 10.453l2.367 6.98c.97 4.384 5.323 7.47 10.201 7.47h68.681c4.938 0 9.458-3.089 10.506-7.18l2.833-7.074c1.106-4.436 4.073-7.156 6.943-9.786 1.069-.978 2.182-1.997 3.262-3.185.323-.357 32.477-36.244 32.477-66.458 0-49.375-39.254-88.05-89.369-88.05" fill="#fff"/>
    <path d="M341.315 258.157L175 341.317 8.684 258.157V91.843L175 8.683l166.316 83.16z"/>
    <path d="M257.958 68.523H236.17a12.097 12.097 0 0 0-10.707-6.48c-4.53 0-8.632 2.524-10.724 6.5l-21.879-.026v23.592h-6.71V63.48l6.014-19.474h-42.709l7.497 19.529v28.573h-20.628a22.59 22.59 0 0 0-21.63-15.983c-12.493 0-22.656 10.163-22.656 22.65 0 12.493 10.163 22.663 22.656 22.663a22.604 22.604 0 0 0 21.59-15.87h20.668v20.83c-10.204.838-18.216 4.528-23.25 10.716-4.805 5.905-4.843 10.65-5.36 22.765l.45 116.833h129.172V68.523zm-46.82 37.045v33.934a23.369 23.369 0 0 0-1.717-2.388c-5.036-6.188-13.048-9.878-23.252-10.715l-.02.027v-20.858h24.988zM95.061 99.663c.148-10.62 8.975-20.372 19.631-20.372 8.96 0 16.727 6.08 18.891 14.785l.301 1.199h26.23V62.952l-6.058-15.784h33.818l-4.826 15.61-.07 32.497h9.483v4.058l-97.4.33zm105.563 34.139a33.038 33.038 0 0 1 2.213 1.415 20.212 20.212 0 0 1 4.05 3.81c.022.027.054.054.078.08.05.056.075.13.127.19 2.904 3.756 4.68 8.965 4.071 16.205l-.17 11.077v51.777h-79.036l-.228-57.996c-.127-7.365.194-16.042 4.425-21.252 4.7-5.775 12.461-9.11 22.46-9.651l1.5-.081v-23.894h22.864v24.138s7.541-.244 14.833 2.82c-.1-.064-.198-.135-.303-.2m21.518-32.908h-16.715l.016-3.971h16.699v3.97zm28.747 162.927l-21.25.005.564-170.436-24.631-.006V77.006h12.177c.057.119.138.227.204.346a12.002 12.002 0 0 0 1.438 2.096c.21.249.426.48.652.698.185.183.365.367.56.54.243.21.497.406.75.594.206.15.406.309.617.443.276.178.564.335.852.492.216.118.426.243.653.346.311.146.635.259.955.377.223.077.433.168.66.238.364.108.746.179 1.13.259.191.038.38.092.574.12.587.086 1.18.135 1.781.135.602 0 1.202-.048 1.783-.135.191-.027.381-.082.567-.12.39-.075.77-.151 1.141-.26.221-.07.432-.155.648-.231.326-.124.653-.238.967-.383.222-.103.433-.228.643-.346.295-.151.581-.314.857-.492.216-.135.41-.292.615-.443a9.547 9.547 0 0 0 1.31-1.124c.228-.226.45-.458.655-.708.17-.194.332-.4.485-.611.194-.26.376-.523.554-.8.138-.226.276-.453.403-.685.063-.12.146-.227.205-.346h11.478v185.252z" fill="#fff"/>
    <path d="M224.208 73.417l5.057-5.511M227.85 65.505l3.892 3.933-5.313 5.257-3.891-3.934z"/>
  </symbol>
</svg>