<svg xmlns="http://www.w3.org/2000/svg">
  <symbol id="LespaceCoworking" viewBox="0 0 350 350">
    <path d="M231.476 160.018l11.531-3.006-.002-8.663-11.529-3.001a57.164 57.164 0 0 0-1.402-7.145l9.68-7.181-3.263-8.022-11.947 1.618a56.56 56.56 0 0 0-4.43-6.681l6.024-10.28-6.126-6.123-10.279 6.033a56.902 56.902 0 0 0-6.041-4.052l1.713-11.803-7.982-3.365-7.252 9.466a57.23 57.23 0 0 0-7.849-1.592l-3.01-11.534-8.663.005-2.999 11.529a57.168 57.168 0 0 0-7.147 1.403l-7.181-9.68-8.022 3.264 1.622 11.946a56.796 56.796 0 0 0-6.685 4.429l-10.277-6.027-6.124 6.129 6.035 10.279a57.34 57.34 0 0 0-4.053 6.039l-11.804-1.712-3.366 7.983 9.467 7.254a56.828 56.828 0 0 0-1.591 7.848l-11.533 3.008.002 8.663 11.529 2.999a56.782 56.782 0 0 0 1.406 7.147l-9.683 7.18 3.264 8.023 11.947-1.621a56.606 56.606 0 0 0 4.429 6.683l-6.025 10.278 6.128 6.125 10.279-6.034a57.131 57.131 0 0 0 6.039 4.053l-1.715 11.8 7.985 3.367 7.253-9.469a56.887 56.887 0 0 0 7.847 1.596l3.01 11.532 8.662-.001 3-11.53a57.35 57.35 0 0 0 7.147-1.405l7.181 9.681 8.024-3.265-1.623-11.944a56.786 56.786 0 0 0 6.686-4.432l10.277 6.027 6.12-6.126-6.033-10.281a56.144 56.144 0 0 0 4.055-6.04l11.806 1.715 3.363-7.983-9.467-7.255a57.321 57.321 0 0 0 1.592-7.85m-59.765 40.036c-26.156-1.816-45.883-24.49-44.066-50.644 1.816-26.152 24.486-45.884 50.643-44.068 26.151 1.816 45.882 24.492 44.065 50.644-1.815 26.155-24.49 45.884-50.642 44.068" fill="#fff"/>
    <path d="M208.794 151.985c0 18.664-15.13 33.794-33.794 33.794-18.664 0-33.795-15.13-33.795-33.794 0-18.664 15.131-33.794 33.795-33.794s33.794 15.13 33.794 33.794" fill="#fff"/>
    <path d="M174.999 292.457c-11.888 0-22.615-5.59-27.328-14.241l-2.217-4.07h59.082l-2.213 4.066c-4.704 8.652-15.428 14.244-27.324 14.244m-19.433-12.807c4.52 4.542 11.646 7.304 19.433 7.304 7.795 0 14.922-2.762 19.433-7.304h-38.866zm49.641-8.109h-60.42a6.1 6.1 0 0 1-6.094-6.09v-6.297c0-3.364 2.733-6.103 6.094-6.103h60.42a6.11 6.11 0 0 1 6.101 6.103v6.298c0 3.356-2.736 6.09-6.101 6.09m-60.42-12.988a.604.604 0 0 0-.591.599v6.298c0 .334.256.586.591.586h60.42a.587.587 0 0 0 .597-.586v-6.298a.606.606 0 0 0-.597-.6h-60.42zm63.56-8.27h-68.681c-7.527 0-14.043-4.838-15.5-11.508l-2.365-6.977c-.798-3.579-2.813-5.503-5.36-7.94-1.099-1.05-2.244-2.147-3.365-3.408-1.343-1.514-32.949-37.468-32.949-69.351 0-52.46 41.672-93.553 94.872-93.553s94.872 41.094 94.872 93.553c0 32.342-32.519 68.624-33.9 70.153-1.198 1.322-2.435 2.459-3.622 3.547-2.585 2.37-4.627 4.24-5.444 7.44l-2.832 7.076c-1.571 6.21-8.229 10.969-15.726 10.969M174.999 63.05c-50.113 0-89.369 38.675-89.369 88.05 0 29.781 31.246 65.342 31.563 65.697 1.013 1.142 2.053 2.131 3.047 3.082 2.841 2.714 5.78 5.522 6.858 10.453l2.367 6.98c.97 4.384 5.323 7.47 10.201 7.47h68.681c4.938 0 9.458-3.089 10.506-7.18l2.833-7.074c1.106-4.436 4.073-7.156 6.943-9.786 1.069-.978 2.182-1.997 3.262-3.185.323-.357 32.477-36.244 32.477-66.458 0-49.375-39.254-88.05-89.369-88.05" fill="#fff"/>
    <path d="M341.316 258.156l-166.317 83.16-166.314-83.16V91.844l166.314-83.16 166.317 83.16z"/>
    <path d="M207.263 287.846c-.625 0-1.257-.025-1.891-.074-13.121-1.033-22.958-12.548-21.931-25.67.617-7.828 4.96-14.738 11.69-18.701l-1.726-9.053a54.822 54.822 0 0 1-18.633 1.71 55.167 55.167 0 0 1-28.305-10.481l-7.841 12.763a18.201 18.201 0 0 1 3.367 12.065c-.782 9.942-9.596 17.619-19.688 16.819a18.189 18.189 0 0 1-12.489-6.358 18.185 18.185 0 0 1-4.327-13.328c.778-9.941 9.566-17.637 19.685-16.818.957.074 1.936.236 2.918.48l8.87-14.44c-9.315-10.89-13.994-24.603-13.254-38.86L95.5 175.663c-2.819 11.083-13.279 18.795-24.998 17.884-6.355-.501-12.137-3.447-16.282-8.295-4.143-4.85-6.146-11.021-5.646-17.375 1.018-12.962 12.51-22.964 25.67-21.931a23.862 23.862 0 0 1 20.994 16.942l30.496 2.743c4.438-15.67 15.795-28.804 30.72-35.521l-3.788-13.706a29.075 29.075 0 0 1-5.146.063c-15.764-1.24-27.582-15.073-26.342-30.836 1.22-15.579 15.022-27.574 30.839-26.347 15.764 1.241 27.58 15.074 26.342 30.837a28.639 28.639 0 0 1-13.626 22.215l3.85 13.924c3.314-.622 6.906-.914 11.161-.914 1.211 0 2.431.024 3.657.066 13.027.445 21.902 5.338 25.425 7.674l18.179-16.123a20.18 20.18 0 0 1-1.604-9.636c.86-10.97 10.606-19.431 21.721-18.553a20.06 20.06 0 0 1 13.776 7.017 20.056 20.056 0 0 1 4.778 14.705c-.86 10.967-10.504 19.438-21.72 18.56a20.215 20.215 0 0 1-8.44-2.599l-16.645 15.6c9.722 10.011 15.384 23.477 15.712 37.372l11.508.762c3.71-12.736 15.776-21.296 29.35-20.237 15.537 1.22 27.188 14.858 25.967 30.402-1.206 15.356-14.805 27.208-30.402 25.97-12.915-1.016-23.513-10.786-25.657-23.442l-11.905-.786c-3.315 15.85-13.67 29.71-28.004 37.47l2.009 10.54c.55.002 1.103.023 1.66.065 13.128 1.033 22.965 12.55 21.933 25.67-.971 12.335-11.416 22.003-23.78 22.003zm-11.5-57.351l2.767 14.515-.993.523c-6.366 3.363-10.503 9.646-11.07 16.806-.896 11.452 7.689 21.504 19.144 22.406 11.529.93 21.512-7.827 22.407-19.142.897-11.453-7.69-21.504-19.144-22.406a21.872 21.872 0 0 0-2.608-.036l-1.313.06-2.918-15.306 1.01-.518c14.424-7.427 24.77-21.326 27.67-37.177l.246-1.332 17.063 1.127.154 1.246c1.46 11.832 11.162 21.098 23.065 22.034 13.964 1.114 26.063-9.473 27.142-23.18 1.088-13.874-9.313-26.05-23.183-27.137a25.162 25.162 0 0 0-26.492 19.166l-.3 1.24-16.852-1.115v-1.425c.039-14.105-5.77-27.858-15.932-37.736L214.483 142l20.668-19.368.998.655a17.148 17.148 0 0 0 8.04 2.738c9.536.742 17.727-6.452 18.459-15.771a17.052 17.052 0 0 0-4.062-12.495 17.041 17.041 0 0 0-11.704-5.962c-9.563-.75-17.73 6.445-18.462 15.765a17.197 17.197 0 0 0 1.79 9.095l.529 1.044-19.437 17.243c1.38 1.219 1.545 1.92 1.307 2.655l-.34 1.048-1.18.042c-.41 0-1.028 0-3.598-2.047l-1.412-1.125.386-.342c-3.64-2.29-11.648-6.336-23.172-6.732-1.193-.04-2.378-.063-3.554-.063-4.64 0-8.43.359-11.917 1.13l-1.407.313-5.242-18.955 1.044-.581c7.536-4.2 12.438-11.827 13.113-20.405 1.105-14.094-9.46-26.465-23.556-27.573-14.144-1.113-26.482 9.628-27.577 23.556-1.105 14.095 9.461 26.465 23.555 27.573 1.944.155 3.878.079 5.802-.204l1.33-.195 5.198 18.814-1.229.52c-15.06 6.342-26.469 19.523-30.52 35.26l-.324 1.25-35.167-3.164-.265-1.046a20.827 20.827 0 0 0-18.576-15.702c-11.545-.935-21.515 7.828-22.406 19.142a20.69 20.69 0 0 0 4.93 15.167 20.71 20.71 0 0 0 14.21 7.239c10.671.879 20.077-6.478 22.078-16.764l.261-1.33 33.79 2.68-.04 1.442c-.01.18-.01.369-.02.559l-.034.34c0 .015 0 .028-.01.043-.874 14.03 3.804 27.543 13.202 38.104l.75.843-11.264 18.336-1.126-.354a15.35 15.35 0 0 0-3.396-.673c-8.46-.667-15.77 5.732-16.423 14.03a15.172 15.172 0 0 0 3.612 11.117 15.163 15.163 0 0 0 10.417 5.304c8.416.656 15.771-5.732 16.426-14.03a15.222 15.222 0 0 0-3.36-10.78l-.677-.834 10.712-17.433 1.34 1.042a52.149 52.149 0 0 0 28.025 10.87 51.733 51.733 0 0 0 19.14-2.051l1.616-.486z" fill="#fff"/>
    <path d="M121.127 256.795a8.226 8.226 0 0 1-5.606-8.47c.357-4.531 4.335-7.931 8.867-7.572.59.045 1.192.169 1.848.372l2.335.734 1.575 1.94a8.223 8.223 0 0 1 1.814 5.82 8.18 8.18 0 0 1-2.863 5.622 8.19 8.19 0 0 1-6.001 1.948 8.122 8.122 0 0 1-1.97-.394m81.745 20.278c-6.03-2-9.894-7.838-9.395-14.186.373-4.74 3.117-8.906 7.344-11.136l2.707-1.43 3.062-.138a14.74 14.74 0 0 1 1.743.02 13.96 13.96 0 0 1 3.282.665 13.774 13.774 0 0 1 9.395 14.183 13.695 13.695 0 0 1-4.801 9.418 13.716 13.716 0 0 1-10.05 3.268 13.79 13.79 0 0 1-3.287-.664m4.73-131.891l.122.039 3.013 2.926c8.8 8.56 13.833 20.468 13.798 32.677l-.01 4.183-.723 3.95c-2.51 13.717-11.475 25.753-23.98 32.193l-3.685 1.897-4.005 1.204a45.146 45.146 0 0 1-16.571 1.776 45.386 45.386 0 0 1-10.736-2.164 45.116 45.116 0 0 1-13.523-7.25l-3.29-2.561-2.785-3.134c-8.036-9.024-12.088-20.534-11.467-32.505.066-.537.078-.981.088-1.278l.095-3.071 1.203-4.678c3.513-13.632 13.398-25.043 26.445-30.534l3.813-1.604 3.943-.875c3.234-.714 6.977-.773 10.932-.84 1.099-.017 2.199-.032 3.308-.061 1.12-.033 3.155.164 6.48 1.269M68.002 182.846a13.771 13.771 0 0 1-9.39-14.187 13.72 13.72 0 0 1 4.795-9.416 13.73 13.73 0 0 1 10.05-3.264c1.127.089 2.233.314 3.289.662 4.426 1.473 7.883 5.203 9.023 9.742l.747 2.976-.596 3.05c-1.344 6.878-7.628 11.65-14.628 11.1a13.725 13.725 0 0 1-3.29-.663zm199.457 22.568c-6.621-2.2-11.45-8.094-12.307-15.016l-.411-3.312.796-3.283c2.12-8.713 10.157-14.521 19.113-13.815a18.16 18.16 0 0 1 16.723 19.576 18.09 18.09 0 0 1-6.325 12.417 18.077 18.077 0 0 1-13.255 4.308 18.183 18.183 0 0 1-4.334-.875m-123.581-99.875a18.564 18.564 0 0 1-12.665-19.123c.392-4.96 2.687-9.47 6.466-12.694a18.495 18.495 0 0 1 13.549-4.406 18.573 18.573 0 0 1 17.098 20.018c-.486 6.226-4.05 11.764-9.52 14.814l-2.941 1.637-3.335.494c-1.412.21-2.834.26-4.22.15a18.513 18.513 0 0 1-4.432-.89m98.452 12.994a9.872 9.872 0 0 1-2.325-1.126l-2.284-1.494-1.233-2.431a10.117 10.117 0 0 1-1.055-5.363c.438-5.574 5.33-9.751 10.903-9.315a10.12 10.12 0 0 1 9.312 10.904c-.441 5.57-5.33 9.748-10.907 9.312a10.391 10.391 0 0 1-2.411-.487" fill="#fff"/>
  </symbol>
</svg>