<svg xmlns="http://www.w3.org/2000/svg">
  <symbol id="JardinPartage" viewBox="0 0 350 350">
    <path d="M231.476 160.018l11.531-3.006-.002-8.663-11.529-3.001a57.164 57.164 0 0 0-1.402-7.145l9.68-7.181-3.263-8.022-11.947 1.618a56.56 56.56 0 0 0-4.43-6.681l6.024-10.28-6.126-6.123-10.279 6.033a56.902 56.902 0 0 0-6.041-4.052l1.713-11.803-7.982-3.365-7.252 9.466a57.23 57.23 0 0 0-7.849-1.592l-3.01-11.534-8.663.005-2.999 11.529a57.168 57.168 0 0 0-7.147 1.403l-7.181-9.68-8.022 3.264 1.622 11.946a56.796 56.796 0 0 0-6.685 4.429l-10.277-6.027-6.124 6.129 6.035 10.279a57.34 57.34 0 0 0-4.053 6.039l-11.804-1.712-3.366 7.983 9.467 7.254a56.828 56.828 0 0 0-1.591 7.848l-11.533 3.008.002 8.663 11.529 2.999a56.782 56.782 0 0 0 1.406 7.147l-9.683 7.18 3.264 8.023 11.947-1.621a56.606 56.606 0 0 0 4.429 6.683l-6.025 10.278 6.128 6.125 10.279-6.034a57.131 57.131 0 0 0 6.039 4.053l-1.715 11.8 7.985 3.367 7.253-9.469a56.887 56.887 0 0 0 7.847 1.596l3.01 11.532 8.662-.001 3-11.53a57.35 57.35 0 0 0 7.147-1.405l7.181 9.681 8.024-3.265-1.623-11.944a56.786 56.786 0 0 0 6.686-4.432l10.277 6.027 6.12-6.126-6.033-10.281a56.144 56.144 0 0 0 4.055-6.04l11.806 1.715 3.363-7.983-9.467-7.255a57.321 57.321 0 0 0 1.592-7.85m-59.765 40.036c-26.156-1.816-45.883-24.49-44.066-50.644 1.816-26.152 24.486-45.884 50.643-44.068 26.151 1.816 45.882 24.492 44.065 50.644-1.815 26.155-24.49 45.884-50.642 44.068" fill="#fff"/>
    <path d="M208.794 151.985c0 18.664-15.13 33.794-33.794 33.794-18.664 0-33.795-15.13-33.795-33.794 0-18.664 15.131-33.794 33.795-33.794s33.794 15.13 33.794 33.794" fill="#fff"/>
    <path d="M174.999 292.457c-11.888 0-22.615-5.59-27.328-14.241l-2.217-4.07h59.082l-2.213 4.066c-4.704 8.652-15.428 14.244-27.324 14.244m-19.433-12.807c4.52 4.542 11.646 7.304 19.433 7.304 7.795 0 14.922-2.762 19.433-7.304h-38.866zm49.641-8.109h-60.42a6.1 6.1 0 0 1-6.094-6.09v-6.297c0-3.364 2.733-6.103 6.094-6.103h60.42a6.11 6.11 0 0 1 6.101 6.103v6.298c0 3.356-2.736 6.09-6.101 6.09m-60.42-12.988a.604.604 0 0 0-.591.599v6.298c0 .334.256.586.591.586h60.42a.587.587 0 0 0 .597-.586v-6.298a.606.606 0 0 0-.597-.6h-60.42zm63.56-8.27h-68.681c-7.527 0-14.043-4.838-15.5-11.508l-2.365-6.977c-.798-3.579-2.813-5.503-5.36-7.94-1.099-1.05-2.244-2.147-3.365-3.408-1.343-1.514-32.949-37.468-32.949-69.351 0-52.46 41.672-93.553 94.872-93.553s94.872 41.094 94.872 93.553c0 32.342-32.519 68.624-33.9 70.153-1.198 1.322-2.435 2.459-3.622 3.547-2.585 2.37-4.627 4.24-5.444 7.44l-2.832 7.076c-1.571 6.21-8.229 10.969-15.726 10.969M174.999 63.05c-50.113 0-89.369 38.675-89.369 88.05 0 29.781 31.246 65.342 31.563 65.697 1.013 1.142 2.053 2.131 3.047 3.082 2.841 2.714 5.78 5.522 6.858 10.453l2.367 6.98c.97 4.384 5.323 7.47 10.201 7.47h68.681c4.938 0 9.458-3.089 10.506-7.18l2.833-7.074c1.106-4.436 4.073-7.156 6.943-9.786 1.069-.978 2.182-1.997 3.262-3.185.323-.357 32.477-36.244 32.477-66.458 0-49.375-39.254-88.05-89.369-88.05" fill="#fff"/>
    <path d="M341.315 258.16l-166.317 83.156L8.685 258.16V91.844l166.313-83.16 166.317 83.16z"/>
    <path d="M213.394 314.184c-6.836-34.162-36.692-100.47-16.505-194.003 2.56-11.867-6.828-7.076-8.873 2.022-21.867 97.5 10.22 157.489 25.378 191.981" clip-rule="evenodd" fill="#fff" fill-rule="evenodd"/>
    <path d="M222.104 130.175c-11.768 0-22.465-4.744-29.502-13.054l-3.007 2.513 1.91-5.259c9.887-27.283 27.04-41.703 49.604-41.703 13.133 0 27.973 4.775 44.107 14.192l6.811 3.974-7.799-1.182c-10.738-1.623-23.97 11.025-27.502 19.186-5.698 13.157-18.964 21.332-34.619 21.333zm-26.86-14.607c6.465 7.385 16.174 11.591 26.86 11.591 14.434-.001 26.637-7.479 31.851-19.516 3.377-7.798 14.273-18.791 25.023-20.813-13.834-7.397-26.556-11.143-37.873-11.143-19.973 0-34.979 11.552-44.668 34.356 16.091-12.956 27.357-18.731 50.51-23.263a86.058 86.058 0 0 1 9.156-1.632l.424 2.986a293.486 293.486 0 0 0-9 1.604c-20.388 4.736-42.527 16.847-52.287 25.83zM141.803 213.052c-21.85 0-40.36-11.397-48.308-29.745-4.773-11.012-21.873-27.661-36.771-27.661-.93 0-1.85.068-2.73.201l-7.794 1.182 6.809-3.974c22.684-13.239 43.53-19.952 61.965-19.952 32.024 0 55.396 19.673 69.46 58.473l4.632 12.776-6.077-9.511c-9.822 11.591-24.752 18.211-41.186 18.211zm-82.222-60.25c15.523 1.836 31.774 17.984 36.683 29.308 7.46 17.227 24.913 27.928 45.539 27.928 15.492 0 29.545-6.189 38.792-17.034-15.084-14.13-54.5-35.378-87.23-39.293l.088-3.002c30.227-1.918 65.668 12.275 84.227 32.139-13.81-31.021-34.862-46.729-62.705-46.729-16.527-.001-35.14 5.608-55.394 16.683zm52.778 1.682c23.94 6.6 48.41 19.438 63.096 30.381-14.222-15.264-38.79-27.068-63.096-30.381z" fill="#fff"/>
  </symbol>
</svg>