<?xml version="1.0" encoding="UTF-8" standalone="no"?><!--Created with Inkscape (http://www.inkscape.org/)--><svg xmlns:dc="http://purl.org/dc/elements/1.1/" xmlns:cc="http://creativecommons.org/ns#" xmlns:rdf="http://www.w3.org/1999/02/22-rdf-syntax-ns#" xmlns="http://www.w3.org/2000/svg" width="345" height="345"><metadata><rdf:RDF><cc:Work><dc:format>image/svg+xml</dc:format><dc:type rdf:resource="http://purl.org/dc/dcmitype/StillImage"/><dc:title/></cc:Work></rdf:RDF></metadata><path fill="#fff" d="M.24 257.52V85.02l172.5-86.25 172.5 86.25v172.5l-172.5 86.25z"/><path fill="#ed732e" d="M6.2 88L172.73 4.73 339.28 88v166.55l-166.54 83.27L6.19 254.55z"/><path d="M229.21 156.3l11.53-3.01v-8.67l-11.53-3a57.16 57.16 0 0 0-1.4-7.14l9.68-7.18-3.26-8.03-11.95 1.62a56.56 56.56 0 0 0-4.43-6.68l6.02-10.28-6.12-6.12-10.28 6.03a56.9 56.9 0 0 0-6.04-4.05l1.71-11.8-7.98-3.37-7.25 9.47a57.23 57.23 0 0 0-7.85-1.6l-3.01-11.53h-8.66l-3 11.53c-2.4.32-4.78.78-7.15 1.4l-7.18-9.67-8.02 3.26 1.62 11.95a56.8 56.8 0 0 0-6.69 4.43l-10.27-6.03-6.13 6.13 6.04 10.28a57.34 57.34 0 0 0-4.06 6.04l-11.8-1.72-3.37 7.99 9.47 7.25a56.83 56.83 0 0 0-1.59 7.85l-11.53 3v8.67l11.53 3c.31 2.39.78 4.77 1.4 7.15l-9.68 7.18 3.27 8.02 11.94-1.62a56.6 56.6 0 0 0 4.43 6.68l-6.02 10.28 6.12 6.12L138 194.1a57.13 57.13 0 0 0 6.04 4.05l-1.71 11.8 7.98 3.37 7.26-9.47c2.56.72 5.19 1.25 7.84 1.6l3.01 11.53h8.66l3-11.53c2.4-.31 4.78-.78 7.15-1.4l7.18 9.68 8.03-3.27-1.63-11.94a56.79 56.79 0 0 0 6.69-4.44l10.28 6.03 6.12-6.13-6.04-10.28a56.14 56.14 0 0 0 4.06-6.04l11.8 1.72 3.37-7.98-9.47-7.26c.71-2.57 1.25-5.19 1.6-7.85m-59.77 40.04a47.47 47.47 0 1 1 6.57-94.7 47.47 47.47 0 0 1-6.57 94.7" fill="#fff"/><path d="M206.53 148.26a33.8 33.8 0 1 1-67.59 0 33.8 33.8 0 0 1 67.59 0" fill="#fff"/><path d="M172.74 288.73c-11.9 0-22.62-5.59-27.33-14.24l-2.22-4.07h59.08l-2.21 4.07c-4.7 8.65-15.43 14.24-27.32 14.24m-19.44-12.8c4.52 4.54 11.65 7.3 19.44 7.3 7.79 0 14.92-2.76 19.43-7.3H153.3zm49.64-8.12h-60.42a6.1 6.1 0 0 1-6.1-6.09v-6.3a6.1 6.1 0 0 1 6.1-6.1h60.42c3.37 0 6.1 2.74 6.1 6.1v6.3a6.1 6.1 0 0 1-6.1 6.1m-60.42-13a.6.6 0 0 0-.59.6v6.3c0 .34.26.59.6.59h60.41c.34 0 .6-.26.6-.59v-6.3a.6.6 0 0 0-.6-.6h-60.42zm63.56-8.26H137.4c-7.52 0-14.04-4.84-15.5-11.51l-2.36-6.98c-.8-3.58-2.82-5.5-5.36-7.94a57.96 57.96 0 0 1-3.37-3.4c-1.34-1.52-32.95-37.47-32.95-69.36 0-52.46 41.68-93.55 94.88-93.55 53.2 0 94.87 41.1 94.87 93.55 0 32.34-32.52 68.63-33.9 70.16a53.7 53.7 0 0 1-3.62 3.54c-2.59 2.37-4.63 4.24-5.45 7.44l-2.83 7.08c-1.57 6.21-8.23 10.97-15.73 10.97M172.74 59.32c-50.12 0-89.37 38.68-89.37 88.05 0 29.79 31.24 65.35 31.56 65.7 1.01 1.14 2.05 2.13 3.05 3.08 2.84 2.72 5.78 5.53 6.85 10.46l2.37 6.98c.97 4.38 5.32 7.47 10.2 7.47h68.68c4.94 0 9.46-3.1 10.5-7.18l2.84-7.08c1.1-4.43 4.08-7.15 6.95-9.78 1.06-.98 2.18-2 3.26-3.19.32-.36 32.47-36.24 32.47-66.46 0-49.37-39.25-88.05-89.36-88.05" fill="#fff"/></svg>