<?xml version="1.0" encoding="UTF-8" standalone="no"?><!--Created with Inkscape (http://www.inkscape.org/)--><svg xmlns:dc="http://purl.org/dc/elements/1.1/" xmlns:cc="http://creativecommons.org/ns#" xmlns:rdf="http://www.w3.org/1999/02/22-rdf-syntax-ns#" xmlns="http://www.w3.org/2000/svg" width="345" height="345"><metadata><rdf:RDF><cc:Work><dc:format>image/svg+xml</dc:format><dc:type rdf:resource="http://purl.org/dc/dcmitype/StillImage"/><dc:title/></cc:Work></rdf:RDF></metadata><path fill="#fff" d="M1.25 87.02L173.75.77l172.5 86.25v172.5l-172.5 86.25-172.5-86.25z"/><path fill="#e32e39" d="M7.44 90.12v166.3l166.3 83.16 166.32-83.15V90.12L173.75 6.96z"/><path d="M308.1 203.82v-68.43a6.77 6.77 0 0 0-13.53 0v61.85h-37.91a6.76 6.76 0 0 0-6.77 6.76v45.04a6.76 6.76 0 0 0 13.53 0v-38.27h31.15v38.27a6.76 6.76 0 1 0 13.53 0v-45.22zm-218.6-6.58H51.57V135.4a6.76 6.76 0 0 0-13.53 0v113.65a6.76 6.76 0 1 0 13.52 0v-38.27h31.16v38.27a6.76 6.76 0 1 0 13.52 0v-45.03a6.76 6.76 0 0 0-6.76-6.77" fill="#fff"/><path d="M301.34 256.51a7.48 7.48 0 0 1-7.48-7.47v-37.56h-29.73v37.56a7.48 7.48 0 0 1-14.95 0V204a7.48 7.48 0 0 1 7.48-7.47h37.2V135.4a7.48 7.48 0 0 1 14.95 0v113.65a7.48 7.48 0 0 1-7.47 7.47zm-38.63-46.45h32.57v38.98a6.06 6.06 0 0 0 12.11 0V135.4a6.06 6.06 0 0 0-12.11 0v62.56h-38.62a6.06 6.06 0 0 0-6.06 6.06v45.04a6.06 6.06 0 0 0 12.1 0v-38.99zM89.49 256.51a7.48 7.48 0 0 1-7.47-7.47v-37.56H52.28v37.56a7.48 7.48 0 0 1-14.94 0V135.4a7.48 7.48 0 0 1 14.95 0v61.14h37.2a7.48 7.48 0 0 1 7.47 7.48v45.04a7.48 7.48 0 0 1-7.47 7.46zm-38.62-46.45h32.57v38.98a6.06 6.06 0 0 0 12.1 0v-45.03a6.06 6.06 0 0 0-6.05-6.06H50.87v-62.56a6.06 6.06 0 0 0-12.11 0v113.65a6.06 6.06 0 0 0 12.1 0v-38.98zM82.36 121.57a21.85 21.85 0 0 1-21.82-21.82 21.85 21.85 0 0 1 21.82-21.82 21.85 21.85 0 0 1 21.82 21.82 21.85 21.85 0 0 1-21.82 21.82zm0-41.64a19.84 19.84 0 0 0-19.82 19.82c0 10.93 8.89 19.82 19.82 19.82s19.82-8.89 19.82-19.82-8.9-19.82-19.82-19.82z" fill="#e32e39"/><path d="M82.36 120.93a21.2 21.2 0 0 1-21.18-21.18 21.2 21.2 0 0 1 21.18-21.18 21.2 21.2 0 0 1 21.17 21.18 21.2 21.2 0 0 1-21.17 21.18z" fill="#fff"/><path d="M82.36 121.93a22.2 22.2 0 0 1-22.18-22.18 22.2 22.2 0 0 1 22.18-22.18 22.2 22.2 0 0 1 22.17 22.18 22.2 22.2 0 0 1-22.17 22.18zm0-42.36a20.2 20.2 0 0 0-20.18 20.18 20.2 20.2 0 0 0 20.18 20.18 20.2 20.2 0 0 0 20.17-20.18 20.2 20.2 0 0 0-20.17-20.18z" fill="#e32e39"/><path d="M119.17 255.83c-5.35 0-9.85-4-10.48-9.33l-5.37-46.3-25.05.04c-.41.03-.81.05-1.22.05-9.67 0-20.1-6.56-20.1-17.16v-45.95c0-9.1 7.89-15.17 15.22-16.96l.13-.02a31 31 0 0 1 4.87-.59h.3c2.34 0 4.44.62 4.53.65 5.23 1.28 9.97 4.5 12.64 8.62l.16.2c10 13.67 14.36 19.21 21.48 19.21 2.82 0 6.17-.82 11.22-2.75a9.13 9.13 0 0 1 11.72 5.23c.87 2.27.8 4.74-.19 6.95a9 9 0 0 1-5.04 4.77c-6.62 2.55-12.44 3.78-17.8 3.78-7.06 0-13.17-2.17-19.04-6.8v19.63l15.57-.02c5.36 0 9.87 4.01 10.48 9.34l6.45 55.66c.33 2.78-.45 5.54-2.2 7.75a10.48 10.48 0 0 1-8.28 4zM105.1 198.2l5.56 48.07a8.56 8.56 0 0 0 17-1.96l-6.46-55.66a8.54 8.54 0 0 0-8.49-7.58l-17.57.03v-25.98l1.66 1.46c6 5.25 12.16 7.7 19.39 7.7 5.1 0 10.69-1.2 17.07-3.65 1.77-.68 3.17-2 3.94-3.73.77-1.72.82-3.65.14-5.42a7.12 7.12 0 0 0-9.14-4.07c-5.29 2.02-8.85 2.88-11.93 2.88-8.08 0-12.93-6.14-23.1-20.04l-.16-.2c-2.39-3.73-6.7-6.68-11.55-7.86-.06-.02-1.96-.58-4-.58h-.26c-2.1.05-4.51.54-4.53.55l-.1.02c-6.54 1.6-13.64 6.98-13.64 15v45.95c0 9.36 9.4 15.16 18.11 15.16.36 0 .72-.02 1.08-.05l.4-.02 26.58-.02z" fill="#e32e39"/><path d="M119.17 255.19a9.92 9.92 0 0 1-9.84-8.77l-5.43-46.87-25.68.05c-.39.02-.78.05-1.17.05-9.36 0-19.46-6.32-19.46-16.52v-45.95c0-8.75 7.64-14.6 14.73-16.33l.09-.02c.09-.02 2.53-.52 4.77-.58h.28c2.26 0 4.27.6 4.35.63 5.16 1.26 9.78 4.42 12.35 8.45.02-.01.07.04.12.14 10.13 13.84 14.55 19.47 22 19.47 2.9 0 6.32-.84 11.45-2.8a8.48 8.48 0 0 1 10.9 4.86c.8 2.1.73 4.4-.19 6.46a8.37 8.37 0 0 1-4.69 4.43c-6.54 2.52-12.28 3.74-17.55 3.74-7.34 0-13.62-2.4-19.7-7.53v21.64l16.22-.02a9.9 9.9 0 0 1 9.84 8.77l6.45 55.66a9.8 9.8 0 0 1-2.06 7.27 9.84 9.84 0 0 1-7.78 3.77z" fill="#fff"/><path d="M119.17 256.19a10.92 10.92 0 0 1-10.84-9.65l-5.32-45.99-24.78.05c-.36.02-.77.05-1.18.05-9.84 0-20.46-6.7-20.46-17.52v-45.95c0-9.29 8.03-15.48 15.5-17.3l.14-.03s2.56-.54 4.93-.6h.3c2.35 0 4.41.6 4.64.67 5.3 1.3 10.1 4.56 12.82 8.73.07.07.14.16.2.27 9.9 13.53 14.21 19.02 21.16 19.02 2.77 0 6.08-.82 11.09-2.73a9.49 9.49 0 0 1 12.18 5.44c.9 2.35.83 4.91-.2 7.22a9.36 9.36 0 0 1-5.24 4.96c-6.65 2.56-12.51 3.8-17.91 3.8-6.94 0-12.93-2.06-18.7-6.44v18.55l15.22-.02a10.9 10.9 0 0 1 10.83 9.66l6.46 55.65a10.8 10.8 0 0 1-2.27 8.02 10.84 10.84 0 0 1-8.57 4.14zm-14.38-57.64l5.53 47.76a8.92 8.92 0 0 0 17.7-2.04l-6.45-55.66a8.9 8.9 0 0 0-8.85-7.89l-17.21.02v-24.79l1.64 1.39c5.9 4.97 11.94 7.29 19.05 7.29 5.15 0 10.77-1.2 17.2-3.67a7.38 7.38 0 0 0 4.13-3.91c.81-1.82.87-3.84.16-5.7a7.48 7.48 0 0 0-9.6-4.27c-5.25 2-8.78 2.86-11.8 2.86-7.8 0-12.3-5.53-22.24-19.1l-.07.06-.66-1.03c-2.43-3.82-6.83-6.82-11.74-8.02-.13-.04-2.02-.6-4.11-.6h-.27c-2.14.05-4.55.55-4.58.56l-.12.02c-6.67 1.63-13.9 7.14-13.9 15.34v45.96c0 9.58 9.58 15.52 18.46 15.52.36 0 .73-.03 1.1-.05l26.63-.05zM263.3 121.57a21.85 21.85 0 0 1-21.82-21.82 21.85 21.85 0 0 1 21.82-21.82 21.85 21.85 0 0 1 21.82 21.82 21.85 21.85 0 0 1-21.82 21.82zm0-41.64a19.84 19.84 0 0 0-19.82 19.82c0 10.93 8.89 19.82 19.82 19.82s19.82-8.89 19.82-19.82-8.9-19.82-19.82-19.82z" fill="#e32e39"/><path d="M263.3 120.93a21.2 21.2 0 0 1-21.18-21.18 21.2 21.2 0 0 1 21.18-21.18 21.2 21.2 0 0 1 21.18 21.18 21.2 21.2 0 0 1-21.18 21.18z" fill="#fff"/><path d="M263.3 121.93a22.2 22.2 0 0 1-22.18-22.18 22.2 22.2 0 0 1 22.18-22.18 22.2 22.2 0 0 1 22.18 22.18 22.2 22.2 0 0 1-22.18 22.18zm0-42.36a20.2 20.2 0 0 0-20.18 20.18 20.2 20.2 0 0 0 20.18 20.18 20.2 20.2 0 0 0 20.18-20.18 20.2 20.2 0 0 0-20.18-20.18z" fill="#e32e39"/><g><path d="M225.2 255.83a10.5 10.5 0 0 1-8.29-4 10.49 10.49 0 0 1-2.2-7.77l6.46-55.65a10.54 10.54 0 0 1 10.48-9.34l15.56.01v-19.62c-5.86 4.64-11.96 6.81-19.03 6.81-5.35 0-11.17-1.23-17.8-3.78a9 9 0 0 1-5.05-4.78 9.03 9.03 0 0 1-.18-6.95 9.14 9.14 0 0 1 11.73-5.23c5.05 1.93 8.4 2.76 11.22 2.76 7.12 0 11.47-5.56 21.48-19.24l.12-.14c2.71-4.16 7.44-7.37 12.73-8.67.03 0 2.12-.63 4.47-.63h.3c2.3.05 4.8.56 4.9.59 7.43 1.8 15.32 7.88 15.32 16.97v45.96c0 10.6-10.43 17.16-20.1 17.16-.5 0-1-.04-1.5-.07l-.12-.01-24.65-.02-5.37 46.3a10.54 10.54 0 0 1-10.47 9.34zm6.45-74.75c-4.35 0-8 3.25-8.5 7.56l-6.45 55.65a8.5 8.5 0 0 0 1.8 6.3 8.51 8.51 0 0 0 6.7 3.24 8.54 8.54 0 0 0 8.5-7.56l5.57-48.08 26.7.03c.45.04.9.07 1.35.07 8.7 0 18.1-5.8 18.1-15.16v-45.96c0-8.02-7.1-13.4-13.7-15.02-.04 0-2.45-.5-4.56-.54h-.26c-2.04 0-3.93.56-3.95.56-4.9 1.2-9.22 4.14-11.61 7.88l-.17.21c-10.17 13.9-15.01 20.03-23.07 20.03-3.07 0-6.64-.87-11.93-2.9a7.09 7.09 0 1 0-5.07 13.24c6.4 2.45 11.98 3.64 17.08 3.64 7.22 0 13.38-2.44 19.38-7.7l1.65-1.45v25.97l-17.56-.01z" fill="#e32e39"/></g><g><path d="M225.2 255.19a9.86 9.86 0 0 1-7.78-3.75 9.84 9.84 0 0 1-2.07-7.3l6.46-55.65a9.9 9.9 0 0 1 9.84-8.77l16.2.01V158.1c-6.06 5.13-12.34 7.53-19.67 7.53-5.27 0-11.02-1.22-17.57-3.74a8.37 8.37 0 0 1-4.69-4.44 8.39 8.39 0 0 1-.17-6.46 8.49 8.49 0 0 1 10.9-4.86c5.13 1.97 8.55 2.8 11.45 2.8 7.42 0 12.1-5.98 22-19.5l.1-.1c2.58-4.03 7.2-7.2 12.38-8.46.07-.02 2.07-.62 4.32-.62h.3c2.22.06 4.67.55 4.78.58 7.16 1.74 14.8 7.6 14.8 16.34v45.96c0 10.2-10.1 16.52-19.46 16.52-.49 0-.97-.04-1.45-.08h-.12l-25.27-.03-5.44 46.88a9.9 9.9 0 0 1-9.83 8.77z" fill="#fff"/><path d="M225.2 256.19a10.85 10.85 0 0 1-8.56-4.13 10.83 10.83 0 0 1-2.28-8.04l6.45-55.65a10.9 10.9 0 0 1 10.84-9.65l15.2.01V160.2c-5.75 4.38-11.74 6.44-18.67 6.44-5.4 0-11.26-1.25-17.93-3.8a9.36 9.36 0 0 1-5.24-4.97 9.37 9.37 0 0 1-.2-7.22 9.5 9.5 0 0 1 12.2-5.44c5 1.92 8.32 2.73 11.09 2.73 6.93 0 11.5-5.85 21.2-19.1l.09-.1c2.72-4.21 7.56-7.51 12.95-8.83 0 0 2.14-.65 4.56-.65h.3c2.37.06 4.96.6 4.98.6 7.53 1.83 15.6 8.03 15.6 17.32v45.96c0 10.82-10.62 17.52-20.46 17.52-.51 0-1.02-.04-1.53-.08l-.11-.01-24.31-.02-5.34 46a10.9 10.9 0 0 1-10.82 9.65zm6.45-75.47a8.9 8.9 0 0 0-8.85 7.88l-6.46 55.65c-.27 2.37.4 4.7 1.87 6.56a8.87 8.87 0 0 0 7 3.38 8.9 8.9 0 0 0 8.84-7.88l5.54-47.77 26.35.03c.46.04.92.08 1.38.08 8.88 0 18.46-5.94 18.46-15.52v-45.96c0-8.21-7.28-13.73-14.04-15.37 0 0-2.4-.5-4.57-.54h-.28c-2.11 0-4 .56-4.01.57-5 1.22-9.4 4.22-11.84 8.03l-.18.22c-10.05 13.75-14.85 19.85-22.76 19.85-3.03 0-6.56-.85-11.81-2.87a7.44 7.44 0 1 0-5.32 13.9c6.44 2.47 12.06 3.67 17.2 3.67 7.1 0 13.16-2.32 19.04-7.3l1.65-1.38v24.78h-17.21z" fill="#e32e39"/></g><path d="M188.33 257.28h-25.95a6.34 6.34 0 0 1 0-12.66h6.65v-68.56h-35.35a6.34 6.34 0 0 1 0-12.66h83.35a6.34 6.34 0 0 1 0 12.66H181.7v68.56h6.64a6.34 6.34 0 0 1 0 12.66z" fill="#fff"/></svg>