<?xml version="1.0" encoding="UTF-8" standalone="no"?><!--Created with Inkscape (http://www.inkscape.org/)--><svg xmlns:dc="http://purl.org/dc/elements/1.1/" xmlns:cc="http://creativecommons.org/ns#" xmlns:rdf="http://www.w3.org/1999/02/22-rdf-syntax-ns#" xmlns="http://www.w3.org/2000/svg" width="345" height="345"><metadata><rdf:RDF><cc:Work><dc:format>image/svg+xml</dc:format><dc:type rdf:resource="http://purl.org/dc/dcmitype/StillImage"/><dc:title/></cc:Work></rdf:RDF></metadata><path fill="#fff" d="M.1 87.48L172.6 1.22l172.5 86.26v172.5l-172.5 86.25L.1 259.98z"/><path fill="#fbc52c" d="M172.6 7.4l166.32 83.17v166.31l-166.31 83.16L6.29 256.88V90.57z"/><path d="M255.56 67.25h-21.78a12.1 12.1 0 0 0-21.44.02l-21.87-.03v23.6h-6.72V62.2l6.02-19.48h-42.7l7.49 19.53v28.57h-20.63a22.6 22.6 0 0 0-21.63-15.98A22.68 22.68 0 0 0 89.64 97.5a22.69 22.69 0 0 0 22.66 22.66 22.6 22.6 0 0 0 21.59-15.87h20.67v20.83c-10.2.84-18.22 4.53-23.25 10.72-4.8 5.9-4.85 10.65-5.36 22.76l.45 116.84h129.17V67.24zm-46.82 37.04v33.94c-.49-.8-1.05-1.58-1.71-2.4-5.04-6.18-13.05-9.87-23.25-10.7l-.03.02V104.3h25zM92.67 98.4c.15-10.62 8.97-20.37 19.63-20.37 8.96 0 16.73 6.08 18.9 14.78l.3 1.2h26.22V61.68l-6.06-15.79h33.82l-4.82 15.61-.07 32.5h9.48v4.06l-97.4.33zm105.56 34.14a33.04 33.04 0 0 1 2.21 1.41 20.21 20.21 0 0 1 4.05 3.81l.08.08.13.2c2.9 3.75 4.68 8.96 4.07 16.2l-.17 11.07v51.78h-79.04l-.22-58c-.13-7.36.2-16.04 4.42-21.25 4.7-5.77 12.46-9.1 22.46-9.65l1.5-.08v-23.9h22.87v24.14s7.54-.24 14.83 2.82l-.3-.2m21.51-32.9h-16.71l.01-3.97h16.7v3.97zm28.75 162.92h-21.25l.56-170.43h-24.63V75.73h12.18l.2.35a13.65 13.65 0 0 0 1.44 2.1l.65.7.56.53.75.6.62.44c.28.18.57.33.85.49.22.12.43.24.66.35.3.14.63.25.95.37.22.08.43.17.66.24.37.1.75.18 1.13.26.2.04.38.1.58.12a12.25 12.25 0 0 0 3.56 0c.2-.03.38-.08.57-.12.39-.08.77-.15 1.14-.26l.65-.23c.32-.13.65-.24.96-.38.22-.1.44-.23.65-.35.3-.15.58-.31.85-.5.22-.13.41-.28.62-.44a9.55 9.55 0 0 0 1.3-1.12 9.56 9.56 0 0 0 1.15-1.32 13.8 13.8 0 0 0 .95-1.48c.07-.12.15-.23.21-.35h11.48v185.25z" fill="#fff"/><path d="M198.23 132.53" fill="#3f4c9a"/><path fill="#fbc52c" d="M221.82 72.14l5.06-5.5M225.46 64.23l3.89 3.94-5.31 5.25-3.9-3.93z"/></svg>