<?xml version="1.0" encoding="UTF-8" standalone="no"?><!--Created with Inkscape (http://www.inkscape.org/)--><svg xmlns:dc="http://purl.org/dc/elements/1.1/" xmlns:cc="http://creativecommons.org/ns#" xmlns:rdf="http://www.w3.org/1999/02/22-rdf-syntax-ns#" xmlns="http://www.w3.org/2000/svg" width="345" height="345"><metadata><rdf:RDF><cc:Work><dc:format>image/svg+xml</dc:format><dc:type rdf:resource="http://purl.org/dc/dcmitype/StillImage"/><dc:title/></cc:Work></rdf:RDF></metadata><path fill="#fff" d="M.24 87.02L172.74.77l172.5 86.25v172.5l-172.5 86.25L.24 259.52z"/><path fill="#4bbbc3" d="M172.73 6.96l166.32 83.16v166.31l-166.32 83.16-166.3-83.16V90.12z"/><path d="M205 286.12a23.9 23.9 0 0 1-23.82-25.74 23.78 23.78 0 0 1 11.69-18.7l-1.73-9.06a55.17 55.17 0 0 1-46.94-8.77l-7.84 12.76a18.2 18.2 0 0 1 3.37 12.07 18.39 18.39 0 0 1-19.69 16.82 18.19 18.19 0 0 1-12.49-6.36 18.19 18.19 0 0 1-4.33-13.33 18.36 18.36 0 0 1 22.6-16.34l8.88-14.44a54.98 54.98 0 0 1-13.26-38.86l-28.2-2.23a23.89 23.89 0 0 1-41.28 9.58 23.71 23.71 0 0 1-5.65-17.37 23.98 23.98 0 0 1 25.67-21.93 23.86 23.86 0 0 1 21 16.94l30.5 2.74a55.9 55.9 0 0 1 30.71-35.52l-3.79-13.7a28.71 28.71 0 0 1-31.49-30.77 28.8 28.8 0 0 1 30.84-26.35 28.71 28.71 0 0 1 26.34 30.83 28.64 28.64 0 0 1-13.62 22.22l3.85 13.92a60 60 0 0 1 11.16-.91c1.21 0 2.43.02 3.66.06 13.02.45 21.9 5.34 25.42 7.68l18.18-16.12a20.18 20.18 0 0 1-1.6-9.64 20.3 20.3 0 0 1 21.72-18.55 20.06 20.06 0 0 1 13.77 7.01c3.51 4.1 5.2 9.33 4.78 14.71a20.24 20.24 0 0 1-30.16 15.96l-16.64 15.6a55.8 55.8 0 0 1 15.7 37.37l11.52.76a28.16 28.16 0 0 1 29.35-20.23 28.3 28.3 0 0 1 25.96 30.4 28.38 28.38 0 0 1-30.4 25.97 28.36 28.36 0 0 1-25.66-23.44l-11.9-.79a55.92 55.92 0 0 1-28 37.47l2 10.54a23.9 23.9 0 0 1 23.6 25.74 23.98 23.98 0 0 1-23.78 22zm-11.5-57.35l2.77 14.51-1 .53a20.78 20.78 0 0 0-11.07 16.8 20.87 20.87 0 0 0 19.15 22.4 20.9 20.9 0 0 0 22.4-19.13A20.87 20.87 0 0 0 204 241.43l-1.31.06-2.92-15.3 1.01-.52a52.83 52.83 0 0 0 27.67-37.18l.25-1.33 17.06 1.13.15 1.24a25.3 25.3 0 0 0 23.07 22.04 25.3 25.3 0 0 0 27.14-23.18 25.27 25.27 0 0 0-23.18-27.14 25.16 25.16 0 0 0-26.5 19.17l-.3 1.24-16.85-1.12v-1.42a52.72 52.72 0 0 0-15.93-37.74l-1.14-1.1 20.67-19.37 1 .65a17.2 17.2 0 0 0 26.5-13.03c.35-4.57-1.09-9-4.07-12.5a17.18 17.18 0 0 0-28.38 18.9l.53 1.05-19.43 17.24c1.38 1.22 1.54 1.92 1.3 2.65l-.34 1.05-1.18.04c-.4 0-1.02 0-3.6-2.04l-1.4-1.13.38-.34c-3.64-2.29-11.65-6.34-23.17-6.73-1.2-.04-2.38-.07-3.55-.07-4.64 0-8.43.36-11.92 1.14l-1.4.3-5.25-18.95 1.04-.58a25.62 25.62 0 0 0 13.12-20.4 25.68 25.68 0 0 0-23.56-27.58 25.75 25.75 0 0 0-27.58 23.56 25.68 25.68 0 0 0 29.36 27.37l1.33-.2 5.2 18.82-1.23.52a52.8 52.8 0 0 0-30.52 35.26l-.32 1.25-35.17-3.17-.27-1.04a20.83 20.83 0 0 0-40.98 3.44 20.69 20.69 0 0 0 4.93 15.16 20.71 20.71 0 0 0 14.21 7.24 20.77 20.77 0 0 0 22.08-16.76l.26-1.33 33.79 2.68-.04 1.44c0 .18 0 .37-.02.56l-.03.34-.01.04a52.03 52.03 0 0 0 13.2 38.1l.75.85-11.27 18.34-1.12-.36a15.31 15.31 0 0 0-19.82 13.36c-.32 4.07.96 8.01 3.61 11.12a15.16 15.16 0 0 0 10.42 5.3 15.35 15.35 0 0 0 16.42-14.03c.3-3.9-.89-7.72-3.36-10.78l-.67-.83 10.71-17.44 1.34 1.05a52.15 52.15 0 0 0 47.16 8.81l1.62-.48z" fill="#fff"/><path d="M118.86 255.07a8.25 8.25 0 1 1 5.1-15.67l2.35.73 1.57 1.94a8.22 8.22 0 0 1-9.02 13m81.75 20.28c-6.03-2-9.9-7.84-9.4-14.19.37-4.74 3.12-8.9 7.35-11.14l2.7-1.42 3.06-.14a13.96 13.96 0 0 1 5.03.68c6.03 2 9.9 7.84 9.4 14.18a13.7 13.7 0 0 1-4.8 9.42 13.72 13.72 0 0 1-13.34 2.6m4.73-131.88l.12.03 3.01 2.93a45.67 45.67 0 0 1 13.8 32.68l-.01 4.18-.72 3.95a45.77 45.77 0 0 1-23.98 32.2l-3.69 1.9-4 1.2a45.15 45.15 0 0 1-27.31-.4 45.12 45.12 0 0 1-13.52-7.24l-3.3-2.56-2.78-3.14a45.02 45.02 0 0 1-11.47-32.5c.07-.54.08-.98.1-1.28l.09-3.07 1.2-4.68a45.73 45.73 0 0 1 26.45-30.53l3.8-1.6 3.95-.88c3.24-.72 6.98-.78 10.93-.84l3.31-.06c1.12-.04 3.16.16 6.48 1.26M65.74 181.12c-6.03-2-9.9-7.84-9.4-14.19.3-3.67 2-7.02 4.8-9.41a13.73 13.73 0 0 1 13.34-2.6 13.92 13.92 0 0 1 9.02 9.74l.75 2.97-.6 3.05a13.79 13.79 0 0 1-17.91 10.44zm199.45 22.57a18.26 18.26 0 0 1-12.3-15.02l-.41-3.31.8-3.28a18.11 18.11 0 0 1 19.1-13.82 18.16 18.16 0 0 1 16.72 19.58 18.09 18.09 0 0 1-6.32 12.41 18.08 18.08 0 0 1-17.59 3.44M141.61 103.8a18.56 18.56 0 0 1-12.66-19.12 18.5 18.5 0 0 1 6.46-12.7 18.5 18.5 0 0 1 17.99-3.5 18.57 18.57 0 0 1 12.66 19.12 18.6 18.6 0 0 1-9.52 14.81l-2.94 1.64-3.33.5a18.7 18.7 0 0 1-8.66-.75m98.46 13a9.87 9.87 0 0 1-2.33-1.13l-2.28-1.5-1.24-2.42a10.15 10.15 0 0 1 12.26-14.2 10.12 10.12 0 0 1 6.9 10.42 10.16 10.16 0 0 1-13.31 8.83" fill="#fff"/></svg>