<?xml version="1.0" encoding="UTF-8" standalone="no"?><!--Created with Inkscape (http://www.inkscape.org/)--><svg xmlns:dc="http://purl.org/dc/elements/1.1/" xmlns:cc="http://creativecommons.org/ns#" xmlns:rdf="http://www.w3.org/1999/02/22-rdf-syntax-ns#" xmlns="http://www.w3.org/2000/svg" width="345" height="345"><metadata><rdf:RDF><cc:Work><dc:format>image/svg+xml</dc:format><dc:type rdf:resource="http://purl.org/dc/dcmitype/StillImage"/><dc:title/></cc:Work></rdf:RDF></metadata><path fill="#fff" d="M.24 86.01L172.74-.24l172.5 86.25v172.5l-172.5 86.25L.24 258.51z"/><path fill="#92c01f" d="M172.73 5.95L339.05 89.1v166.31l-166.32 83.16-166.3-83.16V89.11z"/><path d="M211.13 311.45c-6.84-34.16-36.7-100.47-16.5-194 2.55-11.87-6.83-7.08-8.88 2.02-21.86 97.5 10.22 157.49 25.38 191.98" clip-rule="evenodd" fill="#fff" fill-rule="evenodd"/><path d="M219.84 127.44c-11.77 0-22.46-4.75-29.5-13.06l-3 2.52 1.9-5.26c9.89-27.28 27.04-41.7 49.6-41.7 13.14 0 27.98 4.77 44.11 14.19l6.81 3.97-7.8-1.18c-10.73-1.62-23.97 11.02-27.5 19.19-5.7 13.15-18.96 21.33-34.62 21.33zm-26.86-14.6c6.47 7.38 16.17 11.58 26.86 11.58 14.43 0 26.64-7.48 31.85-19.51 3.38-7.8 14.27-18.8 25.02-20.82-13.83-7.4-26.55-11.14-37.87-11.14-19.97 0-34.98 11.55-44.67 34.36 16.1-12.96 27.36-18.73 50.51-23.27a86.06 86.06 0 0 1 9.16-1.63l.42 2.99c-3.2.52-6.18 1.05-9 1.6-20.38 4.74-42.52 16.85-52.28 25.83zM139.54 210.32c-21.85 0-40.36-11.4-48.3-29.75-4.78-11.01-21.88-27.66-36.78-27.66-.93 0-1.85.07-2.73.2l-7.8 1.18 6.81-3.97c22.69-13.24 43.53-19.95 61.97-19.95 32.02 0 55.4 19.67 69.46 58.47l4.63 12.78-6.08-9.52c-9.82 11.6-24.75 18.22-41.18 18.22zm-82.22-60.25c15.52 1.83 31.77 17.98 36.68 29.3 7.46 17.23 24.91 27.93 45.54 27.93 15.5 0 29.54-6.19 38.8-17.03-15.1-14.13-54.5-35.38-87.24-39.3l.09-3c30.23-1.92 65.67 12.28 84.23 32.14-13.81-31.02-34.87-46.73-62.7-46.73-16.54 0-35.15 5.61-55.4 16.69zm52.77 1.68c23.95 6.6 48.41 19.44 63.1 30.38-14.22-15.27-38.79-27.07-63.1-30.38z" fill="#fff"/></svg>