<svg xmlns="http://www.w3.org/2000/svg" width="1200" height="700"><g transform="translate(-40.734 -116.534)"><g transform="translate(-1.32 87.033)"><path fill="#ed732e" d="M420.024 322.886l-166.543 83.272-166.543-83.272V156.343l166.543-83.272 166.543 83.272z"/><path fill="#fff" d="M309.957 224.632l11.531-3.006-.002-8.663-11.529-3.001a57.164 57.164 0 0 0-1.402-7.145l9.68-7.181-3.263-8.022-11.947 1.619a56.56 56.56 0 0 0-4.43-6.682l6.024-10.28-6.126-6.122-10.279 6.033a56.902 56.902 0 0 0-6.041-4.053l1.713-11.802-7.982-3.366-7.252 9.466a57.23 57.23 0 0 0-7.849-1.591l-3.01-11.535-8.663.005-2.999 11.529a57.168 57.168 0 0 0-7.147 1.404l-7.181-9.68-8.022 3.263 1.622 11.946a56.796 56.796 0 0 0-6.685 4.429l-10.277-6.027-6.124 6.129 6.035 10.279a57.34 57.34 0 0 0-4.053 6.039l-11.804-1.712-3.366 7.983 9.467 7.254a56.828 56.828 0 0 0-1.591 7.848l-11.533 3.008.002 8.663 11.529 2.999a56.782 56.782 0 0 0 1.406 7.147l-9.683 7.18 3.264 8.023 11.947-1.621a56.606 56.606 0 0 0 4.429 6.683l-6.025 10.278 6.128 6.125 10.279-6.034a57.131 57.131 0 0 0 6.039 4.053l-1.715 11.801 7.985 3.367 7.253-9.469a56.887 56.887 0 0 0 7.847 1.596l3.01 11.532 8.662-.002 3-11.53a57.35 57.35 0 0 0 7.147-1.404l7.181 9.681 8.024-3.266-1.623-11.944a56.786 56.786 0 0 0 6.686-4.432l10.277 6.027 6.12-6.126-6.033-10.281a56.144 56.144 0 0 0 4.055-6.039l11.806 1.714 3.363-7.983-9.467-7.255a57.321 57.321 0 0 0 1.592-7.849m-59.765 40.035c-26.156-1.816-45.883-24.489-44.066-50.644 1.816-26.152 24.486-45.884 50.643-44.068 26.151 1.816 45.882 24.492 44.065 50.644-1.815 26.155-24.49 45.884-50.642 44.068"/><path fill="#fff" d="M287.275 216.599c0 18.664-15.13 33.794-33.794 33.794-18.664 0-33.795-15.13-33.795-33.794 0-18.664 15.131-33.794 33.795-33.794s33.794 15.13 33.794 33.794"/><path fill="#fff" d="M253.48 357.071c-11.888 0-22.615-5.589-27.328-14.241l-2.217-4.069h59.082l-2.213 4.066c-4.704 8.652-15.428 14.244-27.324 14.244m-19.433-12.807c4.52 4.542 11.646 7.304 19.433 7.304 7.795 0 14.922-2.762 19.433-7.304h-38.866zm49.641-8.109h-60.42a6.1 6.1 0 0 1-6.094-6.09v-6.298c0-3.364 2.733-6.103 6.094-6.103h60.42a6.11 6.11 0 0 1 6.101 6.103v6.298c0 3.356-2.736 6.09-6.101 6.09m-60.42-12.988a.604.604 0 0 0-.591.599v6.298c0 .334.256.586.591.586h60.42a.587.587 0 0 0 .597-.586v-6.298a.606.606 0 0 0-.597-.599h-60.42zm63.56-8.269h-68.681c-7.527 0-14.043-4.839-15.5-11.509l-2.365-6.976c-.798-3.579-2.813-5.503-5.36-7.94-1.099-1.051-2.244-2.147-3.365-3.408-1.343-1.515-32.949-37.469-32.949-69.352 0-52.459 41.672-93.553 94.872-93.553s94.872 41.094 94.872 93.553c0 32.342-32.519 68.624-33.9 70.153-1.198 1.322-2.435 2.459-3.622 3.547-2.585 2.37-4.627 4.241-5.444 7.441l-2.832 7.075c-1.571 6.211-8.229 10.969-15.726 10.969M253.48 127.664c-50.113 0-89.369 38.676-89.369 88.05 0 29.782 31.246 65.343 31.563 65.698 1.013 1.142 2.053 2.131 3.047 3.082 2.841 2.714 5.78 5.522 6.858 10.453l2.367 6.979c.97 4.385 5.323 7.47 10.201 7.47h68.681c4.938 0 9.458-3.088 10.506-7.18l2.833-7.073c1.106-4.436 4.073-7.156 6.943-9.786 1.069-.978 2.182-1.997 3.262-3.185.323-.357 32.477-36.244 32.477-66.458 0-49.375-39.254-88.05-89.369-88.05"/></g><g transform="translate(-214.798 367.033)"><path fill="#fbc52c" d="M1194.876 322.771l-166.316 83.16-166.315-83.16V156.457l166.315-83.159 166.316 83.159z"/><path fill="#fff" d="M1111.519 133.137h-21.789a12.097 12.097 0 0 0-10.707-6.479c-4.53 0-8.632 2.523-10.724 6.5l-21.879-.027v23.592h-6.711v-28.628l6.015-19.474h-42.709l7.497 19.529v28.573h-20.628a22.59 22.59 0 0 0-21.63-15.983c-12.493 0-22.656 10.163-22.656 22.65 0 12.493 10.163 22.663 22.656 22.663a22.604 22.604 0 0 0 21.59-15.87h20.668v20.831c-10.204.837-18.216 4.527-23.251 10.715-4.804 5.905-4.842 10.65-5.36 22.765l.451 116.833h129.172v-208.19zm-46.821 37.045v33.934a23.369 23.369 0 0 0-1.716-2.388c-5.036-6.188-13.048-9.878-23.252-10.715l-.021.027v-20.858h24.989zm-116.075-5.905c.148-10.619 8.975-20.372 19.631-20.372 8.959 0 16.727 6.08 18.891 14.785l.301 1.199h26.23v-32.323l-6.058-15.784h33.818l-4.826 15.611-.07 32.496h9.483v4.058l-97.4.33zm105.563 34.139a33.038 33.038 0 0 1 2.213 1.415 20.212 20.212 0 0 1 4.05 3.81c.022.027.054.054.078.081.049.055.075.13.127.19 2.904 3.755 4.68 8.964 4.071 16.204l-.17 11.077v51.777h-79.036l-.228-57.996c-.127-7.365.194-16.042 4.425-21.252 4.699-5.775 12.461-9.11 22.46-9.651l1.5-.081v-23.894h22.864v24.138s7.541-.244 14.833 2.82c-.1-.064-.198-.135-.303-.2m21.517-32.908h-16.715l.016-3.971h16.699v3.971zm28.747 162.927l-21.25.005.564-170.436-24.631-.006V141.62h12.177c.057.119.138.227.204.346a12.002 12.002 0 0 0 1.438 2.096c.211.249.427.481.653.698.185.183.365.367.56.54.243.211.497.406.75.594.206.151.406.309.617.443.276.178.564.335.852.492.216.118.426.243.653.346.311.146.635.259.955.377.223.077.433.168.66.238.364.108.746.179 1.129.259.192.038.381.092.575.12.587.086 1.179.135 1.781.135.602 0 1.202-.048 1.783-.135.191-.027.381-.082.567-.12.389-.075.77-.151 1.141-.259.221-.07.432-.156.648-.232.326-.124.653-.238.967-.383.222-.103.433-.228.643-.346.295-.151.581-.314.857-.492.216-.135.41-.292.615-.443a9.547 9.547 0 0 0 1.31-1.124c.228-.226.449-.458.655-.708.17-.194.332-.399.485-.611.194-.259.376-.523.554-.799.138-.227.276-.454.403-.686.063-.119.146-.227.205-.346h11.478v185.253z"/><path fill="#3f4c9a" d="M1054.186 198.421"/><path fill="#fbc52c" d="M1077.769 138.031l5.057-5.511"/><path fill="#fbc52c" d="M1081.411 130.12l3.892 3.933-5.314 5.256-3.89-3.933z"/></g><g transform="translate(-203.206 367.033)"><path fill="#e32e39" d="M808.877 156.459L642.566 73.305l-166.309 83.154v166.31l166.309 83.155 166.311-83.155z"/><path fill="#fff" d="M776.919 270.157v-68.423a6.765 6.765 0 0 0-13.53 0v61.848h-37.913a6.764 6.764 0 0 0-6.768 6.763v45.04a6.763 6.763 0 0 0 6.768 6.762 6.763 6.763 0 0 0 6.763-6.762v-38.274h31.155v38.274a6.76 6.76 0 0 0 6.762 6.762 6.762 6.762 0 0 0 6.763-6.762v-45.228zm-218.606-6.575h-37.915v-61.848a6.765 6.765 0 0 0-13.529 0v113.651a6.761 6.761 0 0 0 6.762 6.762 6.762 6.762 0 0 0 6.763-6.762v-38.274h31.155v38.274a6.762 6.762 0 0 0 6.764 6.762 6.762 6.762 0 0 0 6.762-6.762v-45.036a6.762 6.762 0 0 0-6.762-6.767"/><path fill="#e32e39" d="M770.156 322.855c-4.119 0-7.471-3.351-7.471-7.47v-37.566h-29.738v37.566c0 4.119-3.352 7.47-7.471 7.47-4.122 0-7.476-3.351-7.476-7.47v-45.04c0-4.12 3.354-7.472 7.476-7.472h37.204v-61.14c0-4.12 3.353-7.471 7.473-7.471 4.121 0 7.475 3.352 7.475 7.471v113.651c0 4.12-3.352 7.471-7.472 7.471zm-38.626-46.453h32.573v38.983a6.06 6.06 0 0 0 6.053 6.053 6.061 6.061 0 0 0 6.055-6.053V201.734a6.063 6.063 0 0 0-6.058-6.054 6.062 6.062 0 0 0-6.056 6.054v62.557h-38.621a6.064 6.064 0 0 0-6.059 6.055v45.04c0 3.338 2.718 6.053 6.059 6.053a6.06 6.06 0 0 0 6.054-6.053v-38.984zm-173.217 46.453c-4.12 0-7.472-3.351-7.472-7.47v-37.566h-29.738v37.566c0 4.119-3.353 7.47-7.472 7.47s-7.471-3.351-7.471-7.47V201.734c0-4.12 3.352-7.471 7.471-7.471 4.122 0 7.475 3.352 7.475 7.471v61.14h37.207c4.119 0 7.471 3.354 7.471 7.476v45.036c0 4.118-3.351 7.469-7.471 7.469zm-38.627-46.453h32.573v38.983a6.06 6.06 0 0 0 6.055 6.053 6.06 6.06 0 0 0 6.054-6.053v-45.036c0-3.341-2.716-6.059-6.054-6.059H519.69v-62.557a6.063 6.063 0 0 0-6.058-6.054 6.061 6.061 0 0 0-6.054 6.054v113.651a6.06 6.06 0 0 0 6.054 6.053 6.06 6.06 0 0 0 6.054-6.053v-38.982z"/><path fill="#e32e39" d="M551.176 187.913c-12.032 0-21.82-9.79-21.82-21.823 0-12.032 9.788-21.821 21.82-21.821 12.033 0 21.823 9.789 21.823 21.821 0 12.034-9.79 21.823-21.823 21.823zm0-41.644c-10.929 0-19.82 8.892-19.82 19.821 0 10.93 8.892 19.823 19.82 19.823 10.931 0 19.823-8.893 19.823-19.823 0-10.929-8.893-19.821-19.823-19.821z"/><path fill="#fff" d="M551.176 187.268c-11.676 0-21.175-9.5-21.175-21.177 0-11.676 9.499-21.176 21.175-21.176 11.678 0 21.178 9.5 21.178 21.176 0 11.677-9.5 21.177-21.178 21.177z"/><path fill="#e32e39" d="M551.176 188.268c-12.228 0-22.175-9.949-22.175-22.177s9.947-22.176 22.175-22.176c12.229 0 22.178 9.948 22.178 22.176 0 12.228-9.95 22.177-22.178 22.177zm0-42.353c-11.124 0-20.175 9.051-20.175 20.176 0 11.126 9.051 20.177 20.175 20.177 11.126 0 20.178-9.051 20.178-20.177s-9.052-20.176-20.178-20.176z"/><path fill="#e32e39" d="M587.986 322.175c-5.345 0-9.85-4.014-10.479-9.336l-5.363-46.301-25.058.043c-.405.026-.809.052-1.213.052-9.671 0-20.109-6.563-20.109-17.166v-45.951c0-9.093 7.892-15.163 15.224-16.954l.137-.026c.067-.015 2.566-.532 4.863-.585l.299-.003c2.346 0 4.445.624 4.533.65 5.235 1.283 9.968 4.505 12.641 8.619.049.05.107.117.164.205 10.001 13.664 14.352 19.211 21.478 19.211 2.813 0 6.168-.823 11.216-2.753a9.034 9.034 0 0 1 3.241-.602c3.738 0 7.146 2.344 8.482 5.834a9.021 9.021 0 0 1-.188 6.948 9.008 9.008 0 0 1-5.047 4.775c-6.614 2.543-12.434 3.78-17.788 3.78-7.073 0-13.176-2.173-19.045-6.81v19.632l15.567-.021c5.363 0 9.868 4.016 10.479 9.342l6.455 55.658a10.446 10.446 0 0 1-2.196 7.751 10.48 10.48 0 0 1-7.062 3.939 11.72 11.72 0 0 1-1.231.069zm-14.06-57.639l5.568 48.071c.51 4.314 4.16 7.568 8.492 7.568a9.52 9.52 0 0 0 1.01-.058 8.492 8.492 0 0 0 5.714-3.192 8.46 8.46 0 0 0 1.779-6.278l-6.455-55.661a8.543 8.543 0 0 0-8.492-7.571l-17.568.023v-25.973l1.659 1.452c5.997 5.251 12.157 7.696 19.386 7.696 5.105 0 10.689-1.193 17.073-3.647a7.026 7.026 0 0 0 3.936-3.723 7.036 7.036 0 0 0 .147-5.418 7.123 7.123 0 0 0-6.615-4.549c-.863 0-1.713.158-2.525.47-5.291 2.023-8.859 2.886-11.932 2.886-8.087 0-12.929-6.144-23.102-20.042l-.157-.191c-2.39-3.742-6.707-6.685-11.55-7.873-.068-.019-1.966-.579-4.007-.579l-.252.002c-2.11.049-4.515.546-4.539.551l-.104.018c-6.527 1.598-13.628 6.982-13.628 14.997v45.951c0 9.368 9.4 15.166 18.109 15.166.361 0 .721-.024 1.082-.048l.393-.025 26.578-.023z"/><path fill="#fff" d="M587.986 321.53c-5.018 0-9.247-3.769-9.838-8.766l-5.429-46.872-25.676.045c-.391.025-.779.051-1.17.051-9.36 0-19.464-6.316-19.464-16.521v-45.951c0-8.745 7.637-14.594 14.731-16.327l.091-.017c.09-.019 2.533-.525 4.771-.577l.283-.003c2.252 0 4.263.598 4.348.624 5.154 1.264 9.778 4.426 12.351 8.454.014-.013.067.044.118.138 10.133 13.839 14.552 19.47 21.999 19.47 2.897 0 6.32-.836 11.446-2.796a8.363 8.363 0 0 1 3.011-.56c3.473 0 6.639 2.178 7.88 5.419a8.382 8.382 0 0 1-.175 6.455 8.373 8.373 0 0 1-4.688 4.435c-6.541 2.515-12.284 3.737-17.559 3.737-7.339 0-13.615-2.395-19.69-7.526v21.64l16.214-.021a9.9 9.9 0 0 1 9.838 8.77l6.455 55.658a9.805 9.805 0 0 1-2.063 7.276 9.841 9.841 0 0 1-6.629 3.699 10.77 10.77 0 0 1-1.155.066z"/><path fill="#e32e39" d="M587.986 322.53c-5.524 0-10.181-4.148-10.831-9.649l-5.326-45.987-24.783.043a16.72 16.72 0 0 1-1.172.051c-9.842 0-20.464-6.699-20.464-17.521v-45.951c0-9.284 8.031-15.475 15.494-17.298l.148-.029c-.002 0 2.561-.538 4.928-.592l.295-.004c2.351 0 4.418.597 4.646.666 5.297 1.297 10.092 4.561 12.816 8.733.071.073.141.162.205.27 9.904 13.526 14.21 19.017 21.16 19.017 2.767 0 6.083-.816 11.089-2.73a9.366 9.366 0 0 1 3.368-.625c3.884 0 7.426 2.436 8.813 6.062a9.377 9.377 0 0 1-.195 7.22 9.363 9.363 0 0 1-5.244 4.961c-6.655 2.559-12.517 3.803-17.915 3.803-6.94 0-12.93-2.055-18.69-6.441v18.553l15.213-.02a10.898 10.898 0 0 1 10.832 9.656l6.455 55.657a10.803 10.803 0 0 1-2.271 8.012 10.835 10.835 0 0 1-8.571 4.143zm-14.376-57.639l5.531 47.758c.531 4.492 4.334 7.881 8.845 7.881.328 0 .68-.021 1.05-.06a8.844 8.844 0 0 0 5.952-3.325 8.815 8.815 0 0 0 1.854-6.539l-6.455-55.66a8.9 8.9 0 0 0-8.845-7.885l-17.214.023V222.29l1.646 1.389c5.889 4.974 11.94 7.29 19.045 7.29 5.148 0 10.774-1.201 17.2-3.671a7.38 7.38 0 0 0 4.133-3.91 7.385 7.385 0 0 0 .154-5.689 7.48 7.48 0 0 0-6.946-4.776c-.907 0-1.8.166-2.652.493-5.249 2.006-8.779 2.862-11.805 2.862-7.787 0-12.283-5.528-22.237-19.104l-.065.063-.657-1.029c-2.438-3.817-6.829-6.815-11.746-8.021-.128-.037-2.02-.595-4.109-.595l-.271.003c-2.137.049-4.552.55-4.576.555l-.118.022c-6.67 1.631-13.911 7.138-13.911 15.343v45.951c0 9.586 9.584 15.521 18.464 15.521.367 0 .731-.024 1.099-.048l26.634-.048z"/><path fill="#e32e39" d="M732.119 187.913c-12.032 0-21.821-9.79-21.821-21.823 0-12.032 9.789-21.821 21.821-21.821 12.033 0 21.823 9.789 21.823 21.821 0 12.034-9.79 21.823-21.823 21.823zm0-41.644c-10.93 0-19.821 8.892-19.821 19.821 0 10.93 8.892 19.823 19.821 19.823 10.931 0 19.823-8.893 19.823-19.823 0-10.929-8.892-19.821-19.823-19.821z"/><path fill="#fff" d="M732.119 187.268c-11.677 0-21.176-9.5-21.176-21.177 0-11.676 9.499-21.176 21.176-21.176 11.678 0 21.178 9.5 21.178 21.176 0 11.677-9.5 21.177-21.178 21.177z"/><path fill="#e32e39" d="M732.119 188.268c-12.228 0-22.176-9.949-22.176-22.177s9.948-22.176 22.176-22.176c12.229 0 22.178 9.948 22.178 22.176 0 12.228-9.949 22.177-22.178 22.177zm0-42.353c-11.125 0-20.176 9.051-20.176 20.176 0 11.126 9.051 20.177 20.176 20.177 11.126 0 20.178-9.051 20.178-20.177s-9.052-20.176-20.178-20.176z"/><g><path fill="#e32e39" d="M694.03 322.175c-.405 0-.804-.024-1.214-.069a10.498 10.498 0 0 1-7.072-3.931 10.489 10.489 0 0 1-2.213-7.771l6.455-55.649a10.541 10.541 0 0 1 10.48-9.34l15.568.01v-19.622c-5.868 4.638-11.968 6.811-19.036 6.811-5.349 0-11.17-1.236-17.799-3.779a9.009 9.009 0 0 1-5.045-4.782 9.029 9.029 0 0 1-.188-6.951c1.337-3.491 4.746-5.836 8.483-5.836 1.11 0 2.203.202 3.25.602 5.052 1.936 8.406 2.761 11.218 2.761 7.125 0 11.474-5.555 21.488-19.241l.112-.135c2.715-4.164 7.447-7.375 12.729-8.668a17.314 17.314 0 0 1 4.476-.636l.305.004c2.286.052 4.794.561 4.9.583 7.423 1.809 15.315 7.88 15.315 16.973v45.959c0 10.603-10.434 17.166-20.101 17.166-.507 0-1.009-.039-1.506-.078l-.113-.009-24.649-.018-5.374 46.31a10.541 10.541 0 0 1-10.469 9.336zm6.444-74.759a8.546 8.546 0 0 0-8.501 7.569l-6.455 55.65a8.495 8.495 0 0 0 1.794 6.298 8.513 8.513 0 0 0 6.718 3.242 8.544 8.544 0 0 0 8.484-7.568l5.579-48.081 26.702.035c.445.035.894.072 1.348.072 8.705 0 18.101-5.798 18.101-15.166v-45.959c0-8.014-7.103-13.401-13.701-15.015-.04-.004-2.457-.494-4.561-.542l-.259-.003c-2.044 0-3.931.559-3.95.565-4.896 1.2-9.219 4.14-11.612 7.876l-.171.215c-10.172 13.904-15.009 20.024-23.072 20.025-3.071 0-6.64-.865-11.932-2.893a7.087 7.087 0 0 0-2.536-.47 7.126 7.126 0 0 0-6.616 4.551 7.048 7.048 0 0 0 .147 5.421 7.03 7.03 0 0 0 3.935 3.729c6.396 2.454 11.984 3.647 17.083 3.647 7.224 0 13.381-2.446 19.377-7.697l1.659-1.453v25.962l-17.561-.01z"/></g><g><path fill="#fff" d="M694.03 321.529c-.371 0-.745-.021-1.144-.065a9.856 9.856 0 0 1-6.637-3.69 9.843 9.843 0 0 1-2.078-7.295l6.455-55.649a9.898 9.898 0 0 1 9.84-8.769l16.214.01v-21.629c-6.074 5.131-12.348 7.526-19.682 7.526-5.268 0-11.014-1.222-17.567-3.736a8.37 8.37 0 0 1-4.687-4.442 8.388 8.388 0 0 1-.176-6.457c1.242-3.243 4.409-5.422 7.881-5.422 1.031 0 2.047.188 3.02.56 5.129 1.965 8.553 2.803 11.448 2.803 7.424-.001 12.112-5.98 22.009-19.506l.091-.105c2.579-4.027 7.207-7.185 12.384-8.452a16.634 16.634 0 0 1 4.322-.618l.29.003c2.229.051 4.682.549 4.785.57 7.162 1.746 14.8 7.596 14.8 16.341v45.959c0 10.204-10.099 16.52-19.455 16.52a18.4 18.4 0 0 1-1.455-.076l-.113-.009-25.275-.021-5.439 46.881c-.581 4.999-4.806 8.768-9.831 8.768z"/><path fill="#e32e39" d="M694.03 322.529c-.405 0-.815-.023-1.252-.071a10.852 10.852 0 0 1-7.312-4.063 10.83 10.83 0 0 1-2.288-8.031l6.455-55.65a10.897 10.897 0 0 1 10.833-9.653l15.214.01v-18.543c-5.759 4.386-11.745 6.441-18.682 6.441-5.392 0-11.256-1.244-17.926-3.803a9.357 9.357 0 0 1-5.241-4.968 9.374 9.374 0 0 1-.196-7.222c1.389-3.627 4.932-6.064 8.814-6.064 1.154 0 2.29.21 3.376.625 5.008 1.919 8.325 2.737 11.092 2.737 6.938-.001 11.513-5.855 21.202-19.096l.09-.108c2.72-4.211 7.557-7.51 12.954-8.831h-.001c-.006 0 2.143-.646 4.561-.646l.302.003c2.363.054 4.951.586 4.977.591 7.529 1.834 15.597 8.031 15.597 17.32v45.959c0 10.822-10.618 17.52-20.455 17.52-.517 0-1.027-.039-1.534-.079l-.111-.009-24.308-.017-5.337 45.996c-.639 5.503-5.292 9.652-10.824 9.652zm6.436-75.468a8.9 8.9 0 0 0-8.846 7.883l-6.455 55.65a8.857 8.857 0 0 0 1.868 6.559 8.867 8.867 0 0 0 6.997 3.376 8.901 8.901 0 0 0 8.837-7.882l5.542-47.767 26.356.033c.456.036.914.073 1.378.073 8.876 0 18.455-5.934 18.455-15.52v-45.959c0-8.209-7.276-13.722-14.036-15.369-.003 0-2.405-.493-4.571-.542l-.279-.003c-2.114 0-3.996.567-4.015.573-4.991 1.224-9.395 4.222-11.838 8.037l-.175.218c-10.055 13.747-14.855 19.853-22.767 19.854-3.026 0-6.558-.858-11.806-2.87a7.443 7.443 0 0 0-2.662-.493 7.48 7.48 0 0 0-6.947 4.78 7.398 7.398 0 0 0 .155 5.692 7.375 7.375 0 0 0 4.131 3.915c6.438 2.47 12.067 3.67 17.21 3.67 7.1 0 13.148-2.316 19.036-7.29l1.646-1.39v24.784l-17.214-.012z"/></g><path fill="#fff" d="M657.148 323.62h-25.944a6.337 6.337 0 0 1-6.33-6.329c0-3.49 2.84-6.33 6.33-6.33h6.643v-68.56h-35.346a6.337 6.337 0 0 1-6.33-6.329c0-3.49 2.84-6.33 6.33-6.33h83.351c3.49 0 6.33 2.84 6.33 6.33s-2.84 6.329-6.33 6.329h-35.346v68.56h6.643c3.49 0 6.33 2.84 6.33 6.33s-2.84 6.329-6.331 6.329z"/></g><g transform="translate(-419.892 87.033)"><path fill="#4bbbc3" d="M1587.171 156.458V322.77l-166.317 83.16-166.314-83.16V156.458l166.314-83.159z"/><path fill="#fff" d="M1453.118 352.46c-.625 0-1.257-.025-1.891-.074-13.121-1.033-22.958-12.548-21.931-25.67.617-7.828 4.961-14.738 11.69-18.701l-1.726-9.053a54.822 54.822 0 0 1-18.633 1.711 55.167 55.167 0 0 1-28.305-10.482l-7.841 12.763a18.201 18.201 0 0 1 3.367 12.065c-.782 9.942-9.596 17.619-19.688 16.819a18.189 18.189 0 0 1-12.488-6.358 18.185 18.185 0 0 1-4.328-13.328c.779-9.941 9.567-17.637 19.686-16.818.957.074 1.936.236 2.918.48l8.869-14.439c-9.315-10.89-13.994-24.604-13.254-38.86l-28.207-2.239c-2.819 11.083-13.279 18.795-24.998 17.884-6.355-.501-12.137-3.447-16.282-8.295-4.143-4.849-6.146-11.021-5.646-17.375 1.018-12.962 12.51-22.964 25.67-21.931a23.862 23.862 0 0 1 20.994 16.942l30.496 2.743c4.438-15.67 15.795-28.804 30.72-35.521l-3.788-13.705a29.075 29.075 0 0 1-5.146.063c-15.764-1.24-27.582-15.074-26.342-30.837 1.219-15.578 15.021-27.573 30.838-26.346 15.764 1.241 27.581 15.074 26.342 30.837a28.639 28.639 0 0 1-13.625 22.215l3.85 13.923c3.314-.621 6.906-.913 11.161-.913 1.211 0 2.431.023 3.657.065 13.027.446 21.902 5.339 25.425 7.675l18.178-16.123a20.18 20.18 0 0 1-1.604-9.636c.86-10.97 10.607-19.432 21.722-18.554a20.06 20.06 0 0 1 13.776 7.018 20.056 20.056 0 0 1 4.778 14.705c-.861 10.967-10.505 19.438-21.72 18.559a20.215 20.215 0 0 1-8.44-2.598l-16.646 15.6c9.722 10.011 15.384 23.477 15.712 37.372l11.508.762c3.71-12.736 15.776-21.296 29.35-20.237 15.537 1.22 27.188 14.858 25.967 30.402-1.206 15.355-14.805 27.207-30.402 25.969-12.915-1.016-23.513-10.786-25.657-23.442l-11.905-.785c-3.315 15.849-13.67 29.71-28.004 37.469l2.009 10.54c.551.003 1.103.024 1.661.066 13.127 1.033 22.964 12.55 21.932 25.67-.971 12.335-11.416 22.003-23.779 22.003zm-11.5-57.351l2.767 14.515-.993.523c-6.366 3.363-10.503 9.646-11.07 16.806-.896 11.452 7.689 21.504 19.144 22.406 11.529.931 21.512-7.827 22.407-19.142.897-11.453-7.689-21.504-19.144-22.406a21.872 21.872 0 0 0-2.608-.036l-1.313.06-2.918-15.306 1.01-.518c14.424-7.427 24.771-21.326 27.671-37.177l.245-1.332 17.063 1.127.154 1.246c1.46 11.832 11.162 21.098 23.065 22.034 13.964 1.114 26.063-9.473 27.142-23.179 1.088-13.875-9.313-26.05-23.183-27.138a25.162 25.162 0 0 0-26.492 19.166l-.299 1.241-16.853-1.116v-1.425c.039-14.105-5.77-27.858-15.932-37.736l-1.143-1.107 20.668-19.368.998.655a17.148 17.148 0 0 0 8.041 2.738c9.535.742 17.726-6.452 18.458-15.771a17.052 17.052 0 0 0-4.062-12.495 17.041 17.041 0 0 0-11.704-5.962c-9.563-.749-17.729 6.445-18.462 15.765a17.197 17.197 0 0 0 1.791 9.095l.528 1.044-19.437 17.243c1.381 1.219 1.545 1.921 1.307 2.655l-.34 1.048-1.18.042c-.409 0-1.027 0-3.597-2.047l-1.412-1.125.386-.342c-3.641-2.289-11.648-6.336-23.172-6.732-1.193-.04-2.378-.063-3.554-.063-4.64 0-8.43.359-11.917 1.131l-1.407.312-5.242-18.955 1.044-.581c7.536-4.199 12.438-11.827 13.113-20.405 1.105-14.094-9.461-26.465-23.556-27.573-14.144-1.113-26.482 9.628-27.577 23.556-1.105 14.095 9.461 26.465 23.555 27.573 1.944.155 3.878.079 5.802-.204l1.329-.195 5.199 18.814-1.229.52c-15.061 6.342-26.469 19.523-30.521 35.261l-.323 1.25-35.167-3.165-.265-1.046a20.827 20.827 0 0 0-18.576-15.702c-11.545-.935-21.515 7.828-22.406 19.142a20.69 20.69 0 0 0 4.93 15.167 20.71 20.71 0 0 0 14.209 7.239c10.672.879 20.078-6.478 22.079-16.764l.261-1.33 33.789 2.681-.039 1.441c-.01.181-.01.369-.021.559l-.033.34c0 .015 0 .028-.01.043-.874 14.031 3.804 27.543 13.202 38.104l.749.843-11.263 18.336-1.126-.354a15.35 15.35 0 0 0-3.396-.673c-8.461-.667-15.771 5.732-16.423 14.031a15.172 15.172 0 0 0 3.612 11.116 15.163 15.163 0 0 0 10.417 5.304c8.416.656 15.771-5.732 16.426-14.029a15.222 15.222 0 0 0-3.36-10.781l-.677-.834 10.712-17.433 1.339 1.042a52.149 52.149 0 0 0 28.026 10.87 51.733 51.733 0 0 0 19.139-2.051l1.617-.486z"/><path fill="#fff" d="M1366.982 321.409a8.226 8.226 0 0 1-5.606-8.47c.357-4.531 4.335-7.931 8.867-7.572.59.045 1.192.169 1.848.372l2.335.734 1.575 1.941a8.223 8.223 0 0 1 1.814 5.82 8.18 8.18 0 0 1-2.863 5.621 8.19 8.19 0 0 1-6.001 1.948 8.122 8.122 0 0 1-1.969-.394m81.744 20.278c-6.03-2-9.894-7.838-9.395-14.186.373-4.74 3.117-8.906 7.344-11.136l2.707-1.429 3.062-.139a14.74 14.74 0 0 1 1.743.021 13.96 13.96 0 0 1 3.282.664 13.774 13.774 0 0 1 9.395 14.183 13.695 13.695 0 0 1-4.801 9.418 13.716 13.716 0 0 1-10.05 3.268 13.79 13.79 0 0 1-3.287-.664m4.731-131.891l.121.039 3.013 2.926c8.8 8.56 13.833 20.468 13.798 32.677l-.01 4.183-.723 3.95c-2.509 13.717-11.475 25.753-23.979 32.193l-3.686 1.897-4.005 1.204a45.146 45.146 0 0 1-16.571 1.776 45.386 45.386 0 0 1-10.736-2.164 45.116 45.116 0 0 1-13.523-7.25l-3.289-2.561-2.786-3.134c-8.036-9.024-12.088-20.534-11.467-32.505.066-.537.078-.981.088-1.278l.095-3.071L1381 234c3.513-13.632 13.398-25.043 26.445-30.534l3.813-1.604 3.943-.875c3.234-.714 6.977-.773 10.932-.839 1.099-.018 2.199-.033 3.308-.062 1.12-.033 3.155.164 6.48 1.269m-122.064 46.105a13.771 13.771 0 0 1-9.389-14.187 13.72 13.72 0 0 1 4.794-9.416 13.73 13.73 0 0 1 10.05-3.264c1.127.089 2.233.314 3.289.662 4.426 1.473 7.883 5.203 9.023 9.742l.747 2.976-.596 3.05c-1.344 6.878-7.628 11.651-14.628 11.1a13.725 13.725 0 0 1-3.29-.663zm199.457 22.568c-6.621-2.2-11.449-8.094-12.307-15.016l-.411-3.312.796-3.283c2.12-8.713 10.157-14.521 19.113-13.815a18.16 18.16 0 0 1 16.723 19.576 18.09 18.09 0 0 1-6.325 12.417 18.077 18.077 0 0 1-13.255 4.308 18.183 18.183 0 0 1-4.334-.875m-123.581-99.875a18.564 18.564 0 0 1-12.665-19.123c.392-4.959 2.687-9.469 6.466-12.694a18.495 18.495 0 0 1 13.549-4.406 18.573 18.573 0 0 1 17.098 20.018c-.486 6.226-4.049 11.764-9.52 14.814l-2.941 1.637-3.335.494c-1.412.21-2.834.261-4.219.151a18.513 18.513 0 0 1-4.433-.891m98.452 12.994a9.872 9.872 0 0 1-2.325-1.126l-2.284-1.494-1.233-2.431a10.117 10.117 0 0 1-1.055-5.363c.438-5.574 5.331-9.751 10.903-9.315.831.068 1.64.231 2.416.486a10.12 10.12 0 0 1 6.896 10.418c-.441 5.57-5.33 9.748-10.907 9.312a10.391 10.391 0 0 1-2.411-.487"/></g><g transform="translate(-1185.682 87.034)"><path fill="#92c01f" d="M1812.243 73.298l166.317 83.16v166.316l-166.317 83.156-166.314-83.156V156.458z"/><path fill="#fff" fill-rule="evenodd" d="M1850.639 378.798c-6.836-34.162-36.692-100.47-16.505-194.003 2.559-11.867-6.828-7.076-8.873 2.022-21.867 97.5 10.219 157.489 25.378 191.981" clip-rule="evenodd"/><path fill="#fff" d="M1859.349 194.789c-11.768 0-22.465-4.744-29.502-13.054l-3.007 2.513 1.909-5.259c9.888-27.283 27.04-41.703 49.605-41.703 13.133 0 27.973 4.775 44.107 14.192l6.811 3.974-7.799-1.182c-10.738-1.623-23.971 11.025-27.502 19.186-5.698 13.157-18.964 21.332-34.619 21.333zm-26.86-14.607c6.465 7.385 16.174 11.591 26.859 11.591 14.435-.001 26.638-7.479 31.852-19.516 3.377-7.798 14.273-18.791 25.023-20.813-13.834-7.397-26.556-11.143-37.873-11.143-19.973 0-34.979 11.552-44.668 34.356 16.091-12.956 27.357-18.731 50.51-23.263a86.058 86.058 0 0 1 9.156-1.632l.424 2.986a293.486 293.486 0 0 0-9 1.604c-20.388 4.736-42.527 16.847-52.287 25.83z"/><path fill="#fff" d="M1779.047 277.666c-21.849 0-40.359-11.397-48.308-29.745-4.773-11.012-21.873-27.661-36.771-27.661-.929 0-1.85.068-2.729.201l-7.795 1.182 6.809-3.974c22.684-13.239 43.53-19.952 61.965-19.952 32.024 0 55.396 19.673 69.46 58.473l4.632 12.776-6.077-9.511c-9.822 11.591-24.752 18.211-41.186 18.211zm-82.222-60.25c15.523 1.836 31.774 17.984 36.683 29.308 7.461 17.227 24.913 27.928 45.539 27.928 15.492 0 29.545-6.189 38.792-17.034-15.084-14.13-54.499-35.378-87.229-39.293l.087-3.002c30.227-1.918 65.668 12.275 84.227 32.139-13.809-31.021-34.862-46.729-62.705-46.729-16.527-.001-35.14 5.608-55.394 16.683zm52.778 1.682c23.941 6.6 48.41 19.438 63.096 30.381-14.222-15.264-38.789-27.068-63.096-30.381z"/></g></g></svg>